<svg width="277" height="264" viewBox="0 0 277 264" fill="none" xmlns="http://www.w3.org/2000/svg">
<path d="M256.486 56.2496C255.509 54.6416 254.533 53.0911 253.499 51.5405C239.544 31.0388 216.344 17.0264 193.774 10.6519C183.897 7.83796 173.732 6.40226 163.625 6.05769C97.1808 3.64573 72.774 58.4319 51.3534 72.5591C29.9329 86.6863 -2.91586 110.806 1.21895 161.457C4.37748 199.991 26.2575 236.86 66.2847 253.629C70.7066 255.467 75.3008 257.075 80.1822 258.395C89.1984 260.865 98.9611 262.415 109.528 262.932C139.792 264.253 164.371 256.96 188.376 238.64C193.947 234.391 199.517 229.567 206.753 229.05C212.036 228.648 217.033 230.543 211.52 235.654C205.03 241.627 212.496 253.399 228.978 245.245C256.428 231.577 267.741 202.116 273.025 172.139C279.572 135.27 276.413 89.5003 256.486 56.2496Z" fill="#826FC9"/>
<path opacity="0.7" d="M256.486 56.2496C255.509 54.6416 254.533 53.0911 253.499 51.5405C239.544 31.0388 216.344 17.0264 193.774 10.6519C183.897 7.83796 173.732 6.40226 163.625 6.05769C97.1808 3.64573 72.774 58.4319 51.3534 72.5591C29.9329 86.6863 -2.91586 110.806 1.21895 161.457C4.37748 199.991 26.2575 236.86 66.2847 253.629C70.7066 255.467 75.3008 257.075 80.1822 258.395C89.1984 260.865 98.9611 262.415 109.528 262.932C139.792 264.253 164.371 256.96 188.376 238.64C193.947 234.391 199.517 229.567 206.753 229.05C212.036 228.648 217.033 230.543 211.52 235.654C205.03 241.627 212.496 253.399 228.978 245.245C256.428 231.577 267.741 202.116 273.025 172.139C279.572 135.27 276.413 89.5003 256.486 56.2496Z" fill="white"/>
<path d="M114.008 253.572C111.884 253.572 109.701 253.514 107.462 253.4C97.8712 252.998 88.6828 251.562 80.1835 249.207C75.819 248.001 71.5693 246.566 67.5493 244.843C33.8392 230.716 11.9018 199.532 8.80069 161.343C7.19271 141.702 11.5572 125.163 22.1239 110.749C31.0253 98.6316 42.9128 89.9026 54.3984 82.3221C61.9214 77.3834 68.583 69.8603 76.3358 61.1887C94.5978 40.8018 117.282 15.3613 158.745 15.3613C160.008 15.3613 161.329 15.3613 162.592 15.4188C172.355 15.7633 181.773 17.199 190.502 19.6684C212.957 25.9855 233.171 39.7107 244.427 56.3074C245.346 57.6282 246.207 59.0639 247.126 60.4996C267.054 93.6354 268.145 139.291 262.517 170.876C256.946 202.231 246.667 222.216 230.357 233.013C230.127 231.577 229.725 230.428 229.438 229.567C226.567 222.216 219.101 217.852 209.511 217.852C208.707 217.852 207.903 217.909 207.099 217.967C195.728 218.771 187.459 225.203 181.486 229.854C180.969 230.256 180.452 230.658 179.936 231.06C159.664 246.681 139.334 253.572 114.008 253.572Z" fill="#4B4C43"/>
<path d="M205.262 49.7595C206.752 49.7595 207.961 48.5511 207.961 47.0604C207.961 45.5698 206.752 44.3613 205.262 44.3613C203.771 44.3613 202.562 45.5698 202.562 47.0604C202.562 48.5511 203.771 49.7595 205.262 49.7595Z" fill="#B2B2B2"/>
<path d="M250.398 95.3006C251.889 95.3006 253.097 94.0921 253.097 92.6014C253.097 91.1108 251.889 89.9023 250.398 89.9023C248.908 89.9023 247.699 91.1108 247.699 92.6014C247.699 94.0921 248.908 95.3006 250.398 95.3006Z" fill="#B2B2B2"/>
<path d="M228.23 220.666C229.721 220.666 230.929 219.457 230.929 217.967C230.929 216.476 229.721 215.268 228.23 215.268C226.74 215.268 225.531 216.476 225.531 217.967C225.531 219.457 226.74 220.666 228.23 220.666Z" fill="#B2B2B2"/>
<path d="M32.6913 119.191C34.182 119.191 35.3904 117.983 35.3904 116.492C35.3904 115.001 34.182 113.793 32.6913 113.793C31.2006 113.793 29.9922 115.001 29.9922 116.492C29.9922 117.983 31.2006 119.191 32.6913 119.191Z" fill="#B2B2B2"/>
<path d="M226.911 50.3917C227.64 50.3917 228.232 49.8003 228.232 49.0708C228.232 48.3414 227.64 47.75 226.911 47.75C226.181 47.75 225.59 48.3414 225.59 49.0708C225.59 49.8003 226.181 50.3917 226.911 50.3917Z" fill="#B2B2B2"/>
<path d="M47.0474 203.608C47.7769 203.608 48.3682 203.017 48.3682 202.288C48.3682 201.558 47.7769 200.967 47.0474 200.967C46.3179 200.967 45.7266 201.558 45.7266 202.288C45.7266 203.017 46.3179 203.608 47.0474 203.608Z" fill="#826FC9"/>
<path d="M244.368 192.64C245.097 192.64 245.689 192.048 245.689 191.319C245.689 190.589 245.097 189.998 244.368 189.998C243.638 189.998 243.047 190.589 243.047 191.319C243.047 192.048 243.638 192.64 244.368 192.64Z" fill="#826FC9"/>
<path d="M52.7901 181.039C52.7901 181.786 52.2158 182.36 51.4693 182.36C50.7227 182.36 50.1484 181.786 50.1484 181.039C50.1484 180.293 50.7227 179.718 51.4693 179.718C52.1584 179.661 52.7901 180.293 52.7901 181.039Z" fill="#B2B2B2"/>
<path d="M187.399 175.872C187.399 176.618 186.825 177.192 186.079 177.192C185.332 177.192 184.758 176.618 184.758 175.872C184.758 175.125 185.332 174.551 186.079 174.551C186.825 174.551 187.399 175.125 187.399 175.872Z" fill="#B2B2B2"/>
<path d="M248.79 123.899C248.79 124.646 248.216 125.22 247.469 125.22C246.723 125.22 246.148 124.646 246.148 123.899C246.148 123.152 246.723 122.578 247.469 122.578C248.216 122.578 248.79 123.152 248.79 123.899Z" fill="#B2B2B2"/>
<path d="M29.9927 176.446C30.7222 176.446 31.3136 175.855 31.3136 175.126C31.3136 174.396 30.7222 173.805 29.9927 173.805C29.2632 173.805 28.6719 174.396 28.6719 175.126C28.6719 175.855 29.2632 176.446 29.9927 176.446Z" fill="#826FC9"/>
<path d="M100.629 184.888C101.359 184.888 101.95 184.296 101.95 183.567C101.95 182.837 101.359 182.246 100.629 182.246C99.9 182.246 99.3086 182.837 99.3086 183.567C99.3086 184.296 99.9 184.888 100.629 184.888Z" fill="#826FC9"/>
<path d="M189.755 75.6021C189.755 76.3486 189.181 76.9229 188.434 76.9229C187.688 76.9229 187.113 76.3486 187.113 75.6021C187.113 74.8555 187.688 74.2812 188.434 74.2812C189.181 74.2812 189.755 74.8555 189.755 75.6021Z" fill="#826FC9"/>
<path d="M67.0317 183.738V155.541H32.8047V138.83L62.6671 69.0548H85.466V139.978H97.2387V155.541H85.466V183.738H67.0317ZM49.229 139.978H67.0891V90.1308L49.229 139.978ZM137.438 185.404C130.719 185.404 125.206 183.968 120.784 181.154C116.42 178.34 113.089 174.435 110.849 169.381C108.609 164.385 107.518 158.642 107.518 152.095V101.329C107.518 94.6102 108.552 88.7526 110.677 83.6989C112.802 78.6453 116.075 74.6828 120.44 71.8688C124.804 69.0548 130.489 67.6191 137.381 67.6191C144.272 67.6191 149.9 69.0548 154.322 71.8688C158.686 74.6828 161.96 78.6453 164.085 83.6989C166.209 88.7526 167.243 94.6102 167.243 101.329V152.153C167.243 158.642 166.152 164.442 163.912 169.439C161.673 174.435 158.399 178.34 153.977 181.211C149.67 184.025 144.1 185.404 137.438 185.404ZM137.438 168.577C140.367 168.577 142.549 167.658 143.927 165.878C145.363 164.098 146.282 161.916 146.741 159.389C147.201 156.862 147.431 154.335 147.431 151.866V101.616C147.431 98.9747 147.201 96.333 146.799 93.7488C146.397 91.1645 145.478 88.9823 144.042 87.1446C142.607 85.3643 140.424 84.4455 137.381 84.4455C134.337 84.4455 132.155 85.3643 130.719 87.1446C129.283 88.9249 128.365 91.1071 127.963 93.7488C127.561 96.333 127.331 98.9747 127.331 101.616V151.866C127.331 154.335 127.561 156.805 128.135 159.389C128.652 161.916 129.628 164.098 131.064 165.878C132.442 167.658 134.567 168.577 137.438 168.577ZM213.989 183.738V155.541H179.705V138.83L209.567 69.0548H232.366V139.978H244.139V155.541H232.366V183.738H213.989ZM196.187 139.978H214.047V90.1308L196.187 139.978Z" fill="#826FC9" stroke="#4B4C43" stroke-width="0.574278" stroke-miterlimit="10"/>
<path d="M76.1641 215.209V192.238H84.4911V193.904H78.3463V202.518H83.3425V204.126H78.3463V213.601H84.5485V215.209H76.1641Z" fill="#B2B2B2"/>
<path d="M87.4766 215.209V192.238H92.6451C94.0808 192.238 95.2293 192.468 96.0333 192.927C96.8373 193.387 97.469 194.076 97.8136 194.937C98.1581 195.799 98.3304 196.89 98.3304 198.096C98.3304 198.957 98.2156 199.761 98.0433 200.508C97.871 201.254 97.5264 201.886 97.067 202.46C96.6076 202.977 95.9759 203.322 95.1145 203.494L98.6176 215.209H96.4927L93.1045 203.896H89.4865V215.209H87.4766ZM89.6014 202.346H92.5302C93.5065 202.346 94.253 202.173 94.7699 201.886C95.2867 201.542 95.6887 201.082 95.9184 200.45C96.1482 199.819 96.263 199.015 96.263 198.096C96.263 196.66 96.0333 195.627 95.5165 194.937C94.9996 194.248 94.0233 193.904 92.5876 193.904H89.6014V202.346Z" fill="#B2B2B2"/>
<path d="M102.008 215.209V192.238H107.176C108.612 192.238 109.761 192.468 110.565 192.927C111.369 193.387 112 194.076 112.345 194.937C112.689 195.799 112.862 196.89 112.862 198.096C112.862 198.957 112.747 199.761 112.575 200.508C112.402 201.254 112.058 201.886 111.598 202.46C111.139 202.977 110.507 203.322 109.646 203.494L113.149 215.209H111.139L107.751 203.896H104.133V215.209H102.008ZM104.133 202.346H107.061C108.038 202.346 108.784 202.173 109.301 201.886C109.818 201.542 110.22 201.082 110.45 200.45C110.679 199.819 110.794 199.015 110.794 198.096C110.794 196.66 110.565 195.627 110.048 194.937C109.531 194.248 108.555 193.904 107.119 193.904H104.133V202.346Z" fill="#B2B2B2"/>
<path d="M121.935 215.498C120.441 215.498 119.235 215.211 118.374 214.579C117.513 214.005 116.881 213.143 116.536 212.109C116.192 211.018 116.02 209.812 116.02 208.434V198.901C116.02 197.523 116.192 196.259 116.594 195.283C116.938 194.249 117.57 193.445 118.431 192.871C119.293 192.297 120.441 192.01 121.935 192.01C123.428 192.01 124.634 192.297 125.438 192.871C126.299 193.445 126.931 194.249 127.275 195.283C127.62 196.317 127.792 197.523 127.792 198.901V208.434C127.792 209.812 127.62 211.018 127.275 212.109C126.931 213.143 126.299 214.005 125.495 214.579C124.634 215.211 123.485 215.498 121.935 215.498ZM121.935 213.775C122.968 213.775 123.715 213.545 124.289 213.143C124.806 212.741 125.208 212.167 125.38 211.42C125.553 210.674 125.667 209.87 125.667 208.894V198.499C125.667 197.523 125.553 196.719 125.38 195.972C125.208 195.226 124.806 194.709 124.289 194.307C123.772 193.905 122.968 193.733 121.935 193.733C120.958 193.733 120.154 193.905 119.637 194.307C119.121 194.709 118.719 195.226 118.546 195.972C118.374 196.719 118.259 197.523 118.259 198.499V208.894C118.259 209.87 118.374 210.731 118.546 211.42C118.719 212.167 119.121 212.741 119.637 213.143C120.154 213.545 120.901 213.775 121.935 213.775Z" fill="#B2B2B2"/>
<path d="M131.41 215.209V192.238H136.579C138.014 192.238 139.163 192.468 139.967 192.927C140.771 193.387 141.403 194.076 141.747 194.937C142.092 195.799 142.264 196.89 142.264 198.096C142.264 198.957 142.149 199.761 141.977 200.508C141.805 201.254 141.46 201.886 141.001 202.46C140.541 202.977 139.909 203.322 139.048 203.494L142.551 215.209H140.426L137.038 203.896H133.535V215.209H131.41ZM133.535 202.346H136.464C137.44 202.346 138.187 202.173 138.703 201.886C139.22 201.542 139.622 201.082 139.852 200.45C140.082 199.819 140.197 199.015 140.197 198.096C140.197 196.66 139.967 195.627 139.45 194.937C138.933 194.248 137.957 193.904 136.521 193.904H133.535V202.346Z" fill="#B2B2B2"/>
<path d="M151.68 215.209V192.238H157.193C158.571 192.238 159.662 192.468 160.466 192.985C161.27 193.502 161.787 194.191 162.132 195.11C162.476 196.029 162.648 197.062 162.648 198.326C162.648 199.417 162.476 200.393 162.132 201.312C161.787 202.231 161.213 202.977 160.409 203.494C159.605 204.068 158.571 204.298 157.25 204.298H153.862V215.152H151.68V215.209ZM153.862 202.748H156.618C157.537 202.748 158.284 202.633 158.858 202.346C159.432 202.058 159.834 201.599 160.122 200.967C160.409 200.336 160.524 199.474 160.524 198.383C160.524 197.235 160.409 196.316 160.179 195.627C159.949 194.995 159.547 194.535 159.03 194.248C158.456 194.019 157.71 193.846 156.676 193.846H153.919V202.748H153.862Z" fill="#B2B2B2"/>
<path d="M162.996 215.209L167.82 192.238H170.117L174.999 215.209H172.874L171.725 209.065H166.269L165.121 215.209H162.996ZM166.557 207.457H171.438L168.969 195.052L166.557 207.457Z" fill="#B2B2B2"/>
<path d="M182.921 215.497C181.485 215.497 180.337 215.21 179.533 214.579C178.729 213.947 178.154 213.143 177.81 211.994C177.465 210.903 177.293 209.582 177.293 208.147V199.188C177.293 197.695 177.465 196.431 177.81 195.34C178.154 194.249 178.729 193.445 179.59 192.813C180.451 192.239 181.6 191.895 183.151 191.895C184.529 191.895 185.62 192.124 186.424 192.641C187.228 193.158 187.802 193.904 188.147 194.881C188.491 195.857 188.664 197.063 188.664 198.499V199.303H186.596V198.499C186.596 197.408 186.481 196.489 186.309 195.8C186.137 195.053 185.792 194.536 185.275 194.192C184.759 193.847 184.069 193.675 183.093 193.675C182.059 193.675 181.255 193.904 180.739 194.364C180.222 194.823 179.877 195.455 179.705 196.259C179.533 197.063 179.475 197.982 179.475 198.958V208.376C179.475 209.467 179.59 210.444 179.762 211.248C179.935 212.052 180.337 212.626 180.853 213.085C181.37 213.487 182.174 213.717 183.151 213.717C184.069 213.717 184.816 213.487 185.333 213.085C185.85 212.683 186.194 212.052 186.424 211.248C186.654 210.444 186.711 209.467 186.711 208.376V205.677H183.323V204.069H188.721V215.21H187.343L187.113 212.626C186.826 213.487 186.367 214.234 185.735 214.751C185.046 215.268 184.127 215.497 182.921 215.497Z" fill="#B2B2B2"/>
<path d="M192.457 215.209V192.238H200.727V193.904H194.582V202.518H199.578V204.126H194.582V213.601H200.784V215.209H192.457Z" fill="#B2B2B2"/>
<g opacity="0.3">
<path d="M181.259 152.842L181.316 152.899C181.431 152.957 181.546 153.072 181.661 153.129C181.661 153.129 181.718 153.186 181.776 153.186C181.89 153.244 182.005 153.301 182.12 153.359C182.178 153.359 182.178 153.416 182.235 153.416C182.407 153.474 182.522 153.531 182.694 153.588H182.752C182.924 153.646 183.039 153.646 183.211 153.703C183.269 153.703 183.326 153.703 183.384 153.703C183.613 153.703 183.786 153.761 184.015 153.761C184.819 153.818 185.623 153.646 186.37 153.301C186.772 153.129 187.174 152.957 187.518 152.727C187.748 152.555 188.035 152.383 188.265 152.21C188.38 152.095 188.495 152.038 188.61 151.923C188.839 151.693 189.069 151.521 189.299 151.291C191.194 149.224 192.342 145.951 191.366 142.103C191.136 141.127 190.907 140.265 190.619 139.404C190.16 137.968 189.701 136.647 189.184 135.499C189.069 135.212 188.897 134.867 188.782 134.58C188.437 133.891 188.093 133.259 187.691 132.627C187.461 132.225 187.174 131.881 186.887 131.479C186.198 130.617 185.508 129.928 184.762 129.354C184.59 129.239 184.36 129.067 184.188 128.952C184.13 128.895 184.073 128.895 184.015 128.895L179.766 138.83V149.856C180.168 151.004 180.455 152.038 181.144 152.727C181.201 152.784 181.201 152.842 181.259 152.842Z" fill="black"/>
<path d="M167.302 149.856V130.158C166.728 130.158 166.211 130.216 165.751 130.216C165.751 129.584 165.866 125.449 164.718 120.97C164.66 117.007 163.052 113.447 160.468 110.977C160.181 107.187 158.056 102.708 155.701 99.6067C155.759 99.6067 155.816 99.6067 155.874 99.6067C156.85 99.4918 157.424 98.2858 157.826 96.2758C157.884 95.9887 157.941 95.7016 157.941 95.4719C158.688 94.955 159.607 94.2084 160.066 93.347C160.296 92.8876 160.525 92.141 160.64 91.2796C161.387 90.8202 162.421 90.0736 163.454 88.9251C164.201 88.1211 164.718 86.9725 164.89 85.7091C164.66 84.9626 164.373 84.2734 164.086 83.5843C162.823 80.5406 161.1 77.9564 159.032 75.7167C158.458 75.4296 157.769 75.1424 157.08 74.9701C156.448 74.7978 155.816 74.7404 155.185 74.683C153.404 74.3384 149.729 73.7067 144.618 73.5919C142.895 73.5344 141.345 73.5344 139.966 73.6493C138.818 73.1324 137.497 72.9027 136.176 73.075C135.372 73.1899 134.625 73.3622 133.879 73.7067C131.697 73.1324 129.457 72.9602 127.677 73.1899C127.217 73.2473 126.815 73.3047 126.413 73.3622C126.413 73.1324 126.356 72.9027 126.356 72.7304C126.298 72.3284 126.241 71.869 126.184 71.467C126.241 70.7205 126.241 69.9165 126.184 69.1699C124.116 69.8591 122.164 70.7205 120.441 71.8116C116.076 74.6256 112.803 78.5881 110.678 83.6417C108.553 88.6954 107.52 94.553 107.52 101.272V106.326C109.587 108.967 112.056 111.954 113.722 113.102C113.837 113.217 113.951 113.332 114.066 113.447C114.181 115.399 114.526 119.879 115.387 121.372C115.387 121.372 114.698 123.726 115.847 124.932C115.502 127.574 115.043 134.236 117.799 140.782C119.924 145.893 123.599 148.593 127.332 149.511V101.559C127.332 98.9175 127.562 96.2758 127.964 93.6916C128.366 91.1073 129.285 88.9251 130.72 87.0874C132.156 85.3071 134.338 84.3883 137.382 84.3883C140.426 84.3883 142.608 85.3071 144.044 87.0874C145.479 88.8677 146.398 91.0499 146.8 93.6916C147.202 96.2758 147.432 98.9175 147.432 101.559V151.866C147.432 152.727 147.374 153.589 147.317 154.45C147.374 154.622 147.374 154.795 147.432 154.91C147.489 155.082 147.547 155.254 147.604 155.369C147.604 155.369 147.604 155.426 147.662 155.426C147.719 155.541 147.776 155.656 147.834 155.714L147.891 155.771C147.949 155.886 148.064 155.943 148.121 156.058C148.236 156.116 148.293 156.23 148.408 156.288L148.466 156.345C148.58 156.403 148.638 156.46 148.753 156.46H148.81C148.925 156.518 149.04 156.575 149.212 156.575C149.27 156.575 149.27 156.575 149.327 156.575C149.442 156.632 149.557 156.632 149.672 156.69C149.729 156.69 149.786 156.69 149.786 156.747C149.901 156.805 150.074 156.805 150.188 156.862C152.256 157.322 155.816 154.508 156.735 151.694C156.907 151.119 157.022 150.488 157.137 149.799C157.252 149.799 157.367 149.741 157.482 149.741C159.377 150.143 163.167 150.66 167.302 149.856ZM154.093 97.8264C154.093 97.7115 154.093 97.6541 154.093 97.5393C154.093 97.6541 154.093 97.769 154.093 97.8264ZM154.266 96.3907C154.323 96.1036 154.323 95.8164 154.381 95.5293C154.381 95.8164 154.323 96.1036 154.266 96.3907Z" fill="black"/>
<path d="M85.4669 108.105C84.7204 109.943 84.0887 111.609 83.7441 112.585C82.7104 115.571 81.5618 118.902 81.6193 120.797C81.6193 122.75 82.8252 125.162 83.7441 125.276C84.6629 125.334 85.3521 124.76 85.4669 123.439V108.105Z" fill="black"/>
</g>
<path d="M153.703 110.998C153.703 110.998 154.397 116.204 154.328 121.479C154.258 126.754 155.508 126.893 158.006 127.448C160.505 128.003 164.809 124.602 165.919 121.201C167.03 117.8 166.891 111.137 166.891 111.137L153.703 110.998Z" fill="#DEDEDE" stroke="#4B4C43" stroke-width="0.69409" stroke-miterlimit="10"/>
<path d="M165.226 117.315C165.087 119.675 164.393 123.423 160.923 125.228C158.007 126.824 155.439 125.436 154.676 124.95C155.162 126.755 156.342 126.963 158.077 127.379C160.576 127.935 164.879 124.534 165.989 121.133C167.1 117.732 166.961 111.068 166.961 111.068H165.434C165.365 112.873 165.295 115.788 165.226 117.315Z" fill="#DEDEDE" stroke="#4B4C43" stroke-width="0.69409" stroke-miterlimit="10"/>
<path d="M141.766 115.927C141.766 115.927 145.93 115.858 151.552 113.775C157.174 111.693 163.56 106.973 162.172 102.323C160.784 97.6724 153.426 96.423 150.511 96.7006C147.596 97.0477 144.264 97.8806 144.264 97.8806C144.264 97.8806 145.028 110.929 141.766 115.927Z" fill="#DEDEDE" stroke="#4B4C43" stroke-width="0.69409" stroke-miterlimit="10"/>
<path d="M139.059 117.87C139.059 117.87 142.807 117.107 145.028 114.191C147.249 111.276 148.082 106.487 146.902 103.294C145.652 100.101 139.059 117.87 139.059 117.87Z" fill="#826FC9" stroke="#4B4C43" stroke-width="0.69409" stroke-miterlimit="10"/>
<path d="M116.707 87.4004C116.707 87.4004 114.555 97.8117 118.789 108.015C123.092 118.218 132.393 120.647 138.987 117.802C145.581 115.025 147.108 105.794 147.177 99.6164C147.247 93.439 147.039 90.6626 147.039 90.6626C147.039 90.6626 125.036 92.8837 116.707 87.4004Z" fill="#DEDEDE" stroke="#4B4C43" stroke-width="0.69409" stroke-miterlimit="10"/>
<path d="M115.946 84.5547C115.946 84.5547 114.974 87.9557 116.918 89.2051C118.861 90.4544 129.134 96.493 141.211 94.1331C148.013 92.8838 146.486 90.8709 146.347 89.7604C146.278 88.7192 115.946 84.5547 115.946 84.5547Z" fill="#826FC9" stroke="#4B4C43" stroke-width="0.69409" stroke-miterlimit="10"/>
<path d="M114.277 73.8662C114.277 73.8662 114.555 82.2647 115.943 84.6246C117.331 86.9151 135.239 93.9254 144.331 91.9819C153.424 90.0385 168.208 81.9176 170.013 75.9485C171.817 69.9793 167.098 60.6091 162.725 56.0975C158.283 51.5859 156.409 50.6836 156.409 50.6836C156.409 50.6836 145.581 65.1207 132.115 69.8405C118.65 74.5603 114.277 73.8662 114.277 73.8662Z" fill="white" stroke="#4B4C43" stroke-width="0.69409" stroke-miterlimit="10"/>
<path d="M185.699 95.1033C185.699 95.1033 195.208 91.3552 199.026 93.6457C202.843 95.9362 205.758 101.281 207.702 109.471C209.715 117.731 203.884 123.769 198.818 123.561C193.751 123.353 194.653 120.09 192.71 116.759C190.766 113.427 188.337 111.484 188.198 111.137C188.059 110.79 190.419 100.24 185.699 95.1033Z" fill="white" stroke="#4B4C43" stroke-width="0.69409" stroke-miterlimit="10"/>
<path d="M199.027 93.6459C197.985 93.0212 196.597 92.8824 195.07 92.9518C197.014 94.4094 200.831 97.8798 203.261 104.474C206.731 113.636 205.135 118.494 203.399 120.299C201.664 122.104 197.916 122.728 196.32 122.52C196.042 122.52 195.764 122.451 195.417 122.381C196.111 123.075 197.153 123.492 198.888 123.561C203.955 123.769 209.785 117.731 207.772 109.471C205.759 101.281 202.844 95.9364 199.027 93.6459Z" fill="white" stroke="#4B4C43" stroke-width="0.69409" stroke-miterlimit="10"/>
<path d="M165.57 118.495C165.57 118.495 174.524 121.063 182.923 117.731C191.252 114.4 196.18 108.847 194.306 102.045C192.432 95.2428 189.031 95.0346 181.396 95.104C173.83 95.1734 172.303 95.8675 172.303 95.8675C172.303 95.8675 172.095 115.024 165.57 118.495Z" fill="white" stroke="#4B4C43" stroke-width="0.69409" stroke-miterlimit="10"/>
<path d="M175.48 86.0635C176.345 76.9039 170.208 68.8333 161.774 68.0373C153.339 67.2412 145.801 74.0212 144.936 83.1808C144.072 92.3403 150.209 100.411 158.643 101.207C167.077 102.003 174.616 95.2231 175.48 86.0635Z" fill="#826FC9" stroke="#4B4C43" stroke-width="0.69409" stroke-miterlimit="10"/>
<path d="M178.726 105.232C179.508 96.9504 173.923 89.6497 166.252 88.9256C158.581 88.2015 151.728 94.3282 150.947 102.61C150.165 110.892 155.75 118.192 163.421 118.917C171.092 119.641 177.945 113.514 178.726 105.232Z" fill="#826FC9" stroke="#4B4C43" stroke-width="0.69409" stroke-miterlimit="10"/>
<path d="M176.816 95.3827C176.816 95.3827 177.441 81.9868 170.847 74.56C164.253 67.2026 149.399 73.2412 146.901 84.2773C144.402 95.3133 149.677 111.902 156.479 116.205C163.351 120.509 169.112 116.275 172.998 110.375C176.955 104.406 176.816 95.3827 176.816 95.3827Z" fill="white" stroke="#4B4C43" stroke-width="0.69409" stroke-miterlimit="10"/>
<path d="M84.1546 57.7617C84.1546 57.7617 78.9489 70.3247 77.6995 73.934C76.4502 77.5433 75.062 81.569 75.1314 83.8595C75.1314 86.2194 76.589 89.1346 77.6995 89.2734C78.8101 89.3428 79.643 88.6487 79.7818 87.0523C79.9206 85.4559 79.8512 84.8312 80.6841 83.9289C81.4476 83.096 83.9463 81.3608 84.2934 81.222C84.6404 81.0831 84.8487 82.2631 84.0852 83.5819C83.3217 84.9006 81.6558 86.0806 82.697 87.3994C83.7381 88.7181 85.751 87.1911 86.8615 86.0806C87.9721 84.97 89.0826 83.0266 89.5685 81.1526C90.0543 79.2091 89.7767 75.114 89.7767 75.114L98.9387 66.4378C98.9387 66.3684 86.7921 64.9108 84.1546 57.7617Z" fill="#DEDEDE" stroke="#4B4C43" stroke-width="0.69409" stroke-miterlimit="10"/>
<path d="M84.7079 82.4707C84.7079 82.4707 84.569 84.2753 87.9007 84.3447" stroke="#4B4C43" stroke-width="0.69409" stroke-miterlimit="10"/>
<path d="M75.8945 80.9434C75.8945 80.9434 76.7969 84.4138 80.6838 83.8585" stroke="#4B4C43" stroke-width="0.69409" stroke-miterlimit="10"/>
<path d="M75.5469 85.8029C75.5469 85.8029 77.8374 87.5381 79.5032 85.6641" stroke="#4B4C43" stroke-width="0.69409" stroke-miterlimit="10"/>
<path d="M80.2703 68.5195C80.2703 68.5195 79.9927 75.391 89.7794 74.9746" stroke="#4B4C43" stroke-width="0.69409" stroke-miterlimit="10"/>
<path d="M86.7213 54.0134C86.7213 54.0134 84.292 54.0829 84.1532 57.7615C84.0144 61.4402 86.9295 67.1317 92.6211 68.0341C98.3126 69.0058 101.783 65.6047 102.824 62.8284C103.796 60.052 90.6082 51.7924 86.7213 54.0134Z" fill="#826FC9" stroke="#4B4C43" stroke-width="0.69409" stroke-miterlimit="10"/>
<path d="M93.1094 44.0195C93.1094 44.0195 87.1403 51.2381 86.0991 54.9167C85.058 58.5954 87.6955 65.3281 94.2894 66.161C100.953 66.9939 104.909 61.4412 104.909 61.4412L93.1094 44.0195Z" fill="#DEDEDE" stroke="#4B4C43" stroke-width="0.69409" stroke-miterlimit="10"/>
<path d="M96.5092 38.1883C96.5092 38.1883 92.2058 41.7975 91.9282 47.6973C91.6505 53.5971 97.0645 60.3297 104.144 59.705C111.154 59.011 102.34 37.9106 96.5092 38.1883Z" fill="#826FC9" stroke="#4B4C43" stroke-width="0.69409" stroke-miterlimit="10"/>
<path d="M99.4974 42.4928C99.4974 42.4928 96.374 46.3103 98.1786 52.6265C99.9832 59.0122 104.495 62.4826 104.495 62.4826C104.495 62.4826 113.171 74.9762 116.85 76.9197C120.528 78.8631 126.983 78.9325 140.032 73.588C153.081 68.2435 158.287 60.4697 160.3 56.5134C162.312 52.4877 150.513 34.0943 146.487 31.4568C142.392 28.8192 137.117 27.9169 133.23 28.3334C129.413 28.7498 125.803 29.7216 125.803 29.7216L99.4974 42.4928Z" fill="#826FC9" stroke="#4B4C43" stroke-width="0.69409" stroke-miterlimit="10"/>
<path d="M97.1341 40.4108C97.1341 40.4108 94.0107 44.2283 95.8153 50.5445C97.6199 56.9301 102.132 60.4006 102.132 60.4006C102.132 60.4006 110.808 72.8942 114.486 74.8376C118.165 76.7811 124.62 76.8505 137.669 71.506C150.718 66.1615 155.923 58.3877 157.936 54.4314C159.949 50.4057 148.15 32.0123 144.124 29.3748C140.029 26.7372 134.754 25.8349 130.867 26.2513C127.049 26.6678 123.44 27.6395 123.44 27.6395L97.1341 40.4108Z" fill="white" stroke="#4B4C43" stroke-width="0.69409" stroke-miterlimit="10"/>
<path d="M128.558 33.291C131.551 22.7843 125.461 11.8404 114.954 8.8469C104.447 5.85343 93.5035 11.9441 90.51 22.4507C87.5165 32.9573 93.6071 43.9013 104.114 46.8948C114.62 49.8882 125.564 43.7976 128.558 33.291Z" fill="#826FC9" stroke="#4B4C43" stroke-width="0.69409" stroke-miterlimit="10"/>
<path d="M124.256 36.5552C131.9 26.8632 130.24 12.8093 120.548 5.16508C110.856 -2.47918 96.8018 -0.819138 89.1576 8.8729C81.5133 18.5649 83.1733 32.6188 92.8654 40.263C102.557 47.9073 116.611 46.2473 124.256 36.5552Z" fill="#ABABAB" stroke="#4B4C43" stroke-width="0.69409" stroke-miterlimit="10"/>
<path d="M122.051 25.9035C122.26 25.4177 122.607 24.5848 122.468 23.5436C122.329 21.8778 120.455 18.7544 119.691 17.9215C118.928 17.0886 117.679 18.0603 117.679 18.0603L116.29 15.5616C112.959 9.523 105.393 7.37132 99.3546 10.703C93.316 14.0346 91.1643 21.6002 94.4959 27.6387L97.3417 32.775L95.7453 30.1375C95.7453 30.1375 94.2877 30.6233 94.5653 31.7339C94.843 32.8444 96.5088 36.1066 97.8276 37.0784C98.7993 37.7725 99.771 37.9113 100.257 37.9807L104.074 44.7828C105.74 44.991 107.406 44.991 109.072 44.7828C116.568 43.9499 122.815 39.5077 126.216 33.3303L122.051 25.9035Z" fill="#4B4C43" stroke="#4B4C43" stroke-width="0.69409" stroke-miterlimit="10"/>
<path d="M116.153 19.656C113.654 15.1444 107.893 13.4786 103.381 15.9773L101.646 16.949C97.1346 19.4477 95.4688 25.2087 97.9675 29.7203L106.505 45.0597C107.338 45.0597 108.24 45.0597 109.073 44.9208C115.736 44.2268 121.428 40.6175 124.968 35.4812L116.153 19.656Z" fill="white" stroke="#4B4C43" stroke-width="0.69409" stroke-miterlimit="10"/>
<path d="M105.739 28.8877C106.086 29.4429 106.017 30.0676 105.67 30.2758C105.323 30.4841 104.768 30.137 104.49 29.5818C104.143 29.0265 104.212 28.4018 104.559 28.1936C104.837 28.0548 105.392 28.3324 105.739 28.8877Z" fill="#4B4C43"/>
<path d="M112.751 25.0013C113.098 25.5565 113.029 26.1812 112.682 26.3894C112.335 26.5977 111.779 26.2506 111.502 25.6954C111.155 25.1401 111.224 24.5154 111.571 24.3072C111.918 24.0989 112.473 24.446 112.751 25.0013Z" fill="#4B4C43"/>
<path d="M109.277 25.9043L112.956 30.4159L109.624 31.9429" stroke="#4B4C43" stroke-width="0.69409" stroke-miterlimit="10"/>
<path d="M114.695 34.163C115.042 34.7183 114.834 35.4818 114.209 35.7594C113.654 36.1064 112.89 35.8982 112.612 35.2735C112.265 34.7183 112.474 33.9548 113.098 33.6771C113.654 33.3995 114.348 33.6077 114.695 34.163Z" fill="#4B4C43"/>
<path d="M100.812 28.1246C100.812 28.1246 101.368 25.9035 104.283 25.6953" stroke="#4B4C43" stroke-width="0.69409" stroke-miterlimit="10"/>
<path d="M108.797 22.9889C108.797 22.9889 109.56 20.629 112.614 21.3231" stroke="#4B4C43" stroke-width="0.69409" stroke-miterlimit="10"/>
<path d="M110.879 41.5895C110.879 41.5895 113.308 42.2836 115.043 41.9366C116.779 41.5895 118.167 40.6872 118.792 39.8543C119.416 39.0214 120.319 36.3145 120.319 36.3145" stroke="#4B4C43" stroke-width="0.69409" stroke-miterlimit="10"/>
<path d="M90.2627 35.6201C88.9439 23.3347 97.7588 12.3681 110.044 10.9799C117.124 10.2164 123.787 12.854 128.438 17.5738C125.869 6.74599 115.666 -0.750179 104.283 0.499183C91.9979 1.81795 83.1829 12.854 84.5017 25.1394C85.057 30.345 87.3475 34.8566 90.7485 38.3271C90.5403 37.4248 90.4015 36.5224 90.2627 35.6201Z" fill="white" stroke="#4B4C43" stroke-width="0.69409" stroke-miterlimit="10"/>
<path d="M143.558 48.8128C149.085 48.2125 153.014 42.659 152.335 36.4088C151.656 30.1586 146.626 25.5784 141.1 26.1787C135.574 26.779 131.644 32.3324 132.323 38.5827C133.002 44.8329 138.032 49.4131 143.558 48.8128Z" fill="#826FC9" stroke="#4B4C43" stroke-width="0.69409" stroke-miterlimit="10"/>
<path d="M165.432 28.5406C165.432 28.5406 160.018 27.083 151.272 26.8748C142.527 26.6666 137.321 27.4995 135.655 31.8723C133.989 36.245 134.336 43.3247 139.75 45.6152C142.735 46.934 147.177 46.1705 150.439 45.407C153.632 44.6435 161.545 41.3813 164.044 37.425C166.612 33.4687 166.612 30.3453 165.432 28.5406Z" fill="white" stroke="#4B4C43" stroke-width="0.69409" stroke-miterlimit="10"/>
<path d="M174.665 35.203C174.665 35.203 171.75 29.9973 166.336 28.5397C160.922 27.0822 155.994 30.622 153.703 34.0925C151.482 37.5629 152.454 38.6735 152.454 38.6735C152.454 38.6735 160.366 34.7171 164.462 33.9536C168.626 33.1901 174.665 35.203 174.665 35.203Z" fill="#826FC9" stroke="#4B4C43" stroke-width="0.69409" stroke-miterlimit="10"/>
<path d="M152.247 42.2129C152.247 42.2129 150.998 38.5343 156.134 33.8145C161.27 29.0946 170.71 30.7605 173.764 33.9533C176.818 37.1461 176.471 42.6988 174.042 45.4058C171.612 48.1127 169.183 48.9456 169.183 48.9456C169.183 48.9456 164.394 40.7554 152.247 42.2129Z" fill="white" stroke="#4B4C43" stroke-width="0.69409" stroke-miterlimit="10"/>
<path d="M148.012 49.3627C148.012 49.3627 149.955 44.157 152.315 42.2136C154.606 40.2007 161.546 39.3678 166.683 41.1725C171.819 42.9771 170.917 48.8769 169.945 50.7509C168.973 52.6249 166.058 54.0825 166.058 54.0825L148.012 49.3627Z" fill="white" stroke="#4B4C43" stroke-width="0.69409" stroke-miterlimit="10"/>
<path d="M148.567 48.5311C148.567 48.5311 147.526 48.7394 146.484 49.8499C145.443 50.9604 145.096 51.4463 143.014 52.6263C140.932 53.8062 138.711 53.8756 139.474 56.0967C140.307 58.3178 143.361 58.0402 144.888 57.6237C146.415 57.2767 147.04 56.7214 148.22 55.8191C149.4 54.9168 150.232 48.6699 150.302 48.3923C150.371 48.1147 148.567 48.5311 148.567 48.5311Z" fill="white" stroke="#4B4C43" stroke-width="0.69409" stroke-miterlimit="10"/>
<path d="M154.118 46.4478C154.118 46.4478 150.994 45.6843 149.537 46.9336C148.01 48.183 148.148 52.9028 148.287 55.818C148.426 58.7331 149.467 61.0236 150.578 61.4401C151.688 61.7871 152.799 61.5789 153.285 61.1625C153.701 60.746 153.285 56.5121 153.562 53.0416C153.77 49.6406 154.118 46.4478 154.118 46.4478Z" fill="white" stroke="#4B4C43" stroke-width="0.69409" stroke-miterlimit="10"/>
<path d="M154.118 46.448C154.118 46.448 152.73 49.7797 152.314 53.2501C151.897 56.7206 153.771 61.371 154.535 61.7874C155.229 62.2039 157.311 62.0651 157.727 61.0239C158.213 59.9828 157.866 56.5124 157.936 54.4995C158.005 52.4866 158.977 48.0445 158.838 46.7257C158.63 45.4069 155.645 45.1987 154.118 46.448Z" fill="white" stroke="#4B4C43" stroke-width="0.69409" stroke-miterlimit="10"/>
<path d="M158.769 46.7268C158.769 46.7268 160.644 45.8245 161.962 46.588C163.281 47.3515 163.628 49.2949 163.42 50.3361C163.212 51.3078 162.587 57.2076 162.171 58.6652C161.754 60.0533 160.644 60.7474 159.741 60.678C158.839 60.6086 158.284 59.4981 158.145 58.2487C158.006 56.9993 157.867 54.57 157.867 54.57L158.769 46.7268Z" fill="white" stroke="#4B4C43" stroke-width="0.69409" stroke-miterlimit="10"/>
<path d="M163.421 48.4609C163.421 48.4609 165.919 49.0856 166.683 49.5715C167.446 50.0573 167.724 51.7232 167.169 54.1525C166.683 56.6512 165.919 58.1088 164.809 58.1782C163.629 58.317 162.727 56.8594 162.727 55.9571C162.727 55.1242 163.698 50.4738 163.421 48.4609Z" fill="white" stroke="#4B4C43" stroke-width="0.69409" stroke-miterlimit="10"/>
<path d="M130.52 50.3354C132.116 52.8342 131.561 56.027 129.271 57.4151C127.05 58.8033 123.926 57.901 122.399 55.3329C120.803 52.8342 121.358 49.6413 123.648 48.2532C125.87 46.9344 128.924 47.8367 130.52 50.3354Z" fill="#826FC9" stroke="#4B4C43" stroke-width="0.69409" stroke-miterlimit="10"/>
<path d="M118.233 58.8727C119.344 60.6079 118.927 62.8984 117.4 63.8701C115.804 64.8419 113.652 64.2172 112.541 62.4125C111.431 60.6773 111.847 58.3868 113.374 57.4151C114.971 56.4434 117.122 57.0681 118.233 58.8727Z" fill="#4B4C43"/>
<path d="M128.299 63.0369C129.41 64.7721 128.994 67.0626 127.467 68.0343C125.87 69.0061 123.718 68.3814 122.608 66.5768C121.497 64.8415 121.914 62.551 123.441 61.5793C125.037 60.677 127.189 61.3017 128.299 63.0369Z" fill="#ABABAB" stroke="#4B4C43" stroke-width="0.69409" stroke-miterlimit="10"/>
</svg>
