<svg width="21" height="21" viewBox="0 0 21 21" fill="none" xmlns="http://www.w3.org/2000/svg">
<mask id="mask0_183_12306" style="mask-type:alpha" maskUnits="userSpaceOnUse" x="0" y="0" width="21" height="21">
<rect x="0.25" y="0.25" width="20.5" height="20.5" fill="#D9D9D9" stroke="white" stroke-width="0.5"/>
</mask>
<g mask="url(#mask0_183_12306)">
<path d="M4.92861 15.1248L5.08242 15.305L5.27061 15.1611C5.99294 14.6087 6.80113 14.1723 7.69652 13.8522C8.58745 13.5343 9.52147 13.375 10.5 13.375C11.4785 13.375 12.4125 13.5343 13.3035 13.8522C14.1989 14.1723 15.0071 14.6087 15.7294 15.1611L15.9176 15.305L16.0714 15.1248C16.6012 14.5041 17.0134 13.8007 17.3079 13.016L17.308 13.0158C17.6032 12.2277 17.75 11.3885 17.75 10.5C17.75 8.49457 17.0424 6.77916 15.6319 5.36814L15.6319 5.36806C14.2208 3.95764 12.5054 3.25 10.5 3.25C8.49456 3.25 6.77943 3.95765 5.36897 5.3681C3.95796 6.77911 3.25 8.49453 3.25 10.5C3.25 11.3885 3.39709 12.2278 3.69295 13.016C3.98692 13.8007 4.39877 14.5042 4.92861 15.1248ZM7.1866 18.331L7.1865 18.3309C6.14973 17.8838 5.25038 17.2781 4.48615 16.5138C3.72192 15.7496 3.11615 14.8503 2.66906 13.8135L2.66902 13.8134C2.22346 12.7815 2 11.6779 2 10.5C2 9.32214 2.22346 8.21852 2.66902 7.1866L2.66906 7.1865C3.11615 6.14973 3.72192 5.25038 4.48615 4.48615C5.25038 3.72192 6.14973 3.11586 7.1865 2.66819C8.21844 2.22318 9.3221 2 10.5 2C11.6779 2 12.7816 2.22318 13.8135 2.66819C14.8503 3.11586 15.7496 3.72192 16.5138 4.48615C17.2781 5.25038 17.8838 6.14973 18.3309 7.1865L18.331 7.1866C18.7765 8.21852 19 9.32214 19 10.5C19 11.6779 18.7765 12.7815 18.331 13.8134L18.3309 13.8135C17.8838 14.8503 17.2781 15.7496 16.5138 16.5138C15.7496 17.2781 14.8503 17.8838 13.8135 18.3309L13.8134 18.331C12.7815 18.7765 11.6779 19 10.5 19C9.32214 19 8.21852 18.7765 7.1866 18.331ZM12.7657 17.3988L12.7659 17.3988C13.4762 17.1642 14.1273 16.8273 14.7179 16.3881L14.9877 16.1875L14.7179 15.9869C14.1273 15.5477 13.4762 15.2108 12.7659 14.9762L12.7657 14.9762C12.0533 14.7415 11.2976 14.625 10.5 14.625C9.7024 14.625 8.94668 14.7415 8.23429 14.9762L8.23411 14.9762C7.52376 15.2108 6.8727 15.5477 6.28207 15.9869L6.01228 16.1875L6.28207 16.3881C6.8727 16.8273 7.52376 17.1642 8.23411 17.3988L8.23429 17.3988C8.94668 17.6335 9.7024 17.75 10.5 17.75C11.2976 17.75 12.0533 17.6335 12.7657 17.3988ZM10.5 11.125C9.7037 11.125 9.04232 10.8546 8.49986 10.3128C7.95792 9.77033 7.6875 9.10889 7.6875 8.3125C7.6875 7.51616 7.95789 6.85475 8.49978 6.31228C9.04225 5.77038 9.70366 5.5 10.5 5.5C11.2964 5.5 11.9578 5.77041 12.5003 6.31236C13.0421 6.85482 13.3125 7.5162 13.3125 8.3125C13.3125 9.10884 13.0421 9.77025 12.5002 10.3127C11.9578 10.8546 11.2963 11.125 10.5 11.125ZM10.5 9.875C10.9395 9.875 11.3185 9.72876 11.6174 9.4299C11.9163 9.13105 12.0625 8.75201 12.0625 8.3125C12.0625 7.87299 11.9163 7.49395 11.6174 7.1951C11.3185 6.89624 10.9395 6.75 10.5 6.75C10.0605 6.75 9.68145 6.89624 9.3826 7.1951C9.08374 7.49395 8.9375 7.87299 8.9375 8.3125C8.9375 8.75201 9.08374 9.13105 9.3826 9.4299C9.68145 9.72876 10.0605 9.875 10.5 9.875Z" fill="#4F4F4F" stroke="white" stroke-width="0.5"/>
</g>
</svg>
