<svg width="24" height="24" viewBox="0 0 24 24" fill="none" xmlns="http://www.w3.org/2000/svg">
<path d="M6.92662 11.1L7.06315 10.936L10.6931 6.57611C10.6931 6.57609 10.6931 6.57607 10.6931 6.57605C10.8459 6.39224 10.9194 6.15528 10.8974 5.91729C10.8755 5.67927 10.7599 5.45972 10.5761 5.30694C10.3923 5.15415 10.1553 5.08064 9.91726 5.10259C9.67924 5.12453 9.45969 5.24013 9.3069 5.42395L9.30682 5.42405L4.30947 11.4209C4.28393 11.4574 4.26065 11.4954 4.23978 11.5348C4.23897 11.5568 4.2357 11.5858 4.22287 11.6151C4.20775 11.6497 4.18336 11.6774 4.15345 11.702C4.11896 11.7976 4.10087 11.8983 4.1 12C4.10094 12.1107 4.1223 12.2203 4.163 12.3233L4.17 12.341V12.36C4.17 12.3737 4.1701 12.3796 4.17057 12.3842C4.17061 12.3845 4.17064 12.3849 4.17068 12.3851C4.17283 12.3879 4.17975 12.3955 4.19812 12.4087L4.2182 12.423L4.2293 12.445C4.25278 12.4916 4.27957 12.5364 4.30947 12.5792L9.30682 18.576L9.30684 18.576C9.39146 18.6776 9.49742 18.7593 9.6172 18.8153C9.73697 18.8713 9.86762 18.9002 9.99984 18.9L10.0002 18.9C10.2105 18.9004 10.4143 18.8272 10.5762 18.693L6.92662 11.1ZM6.92662 11.1H7.14M6.92662 11.1H7.14M7.14 11.1H19C19.2387 11.1 19.4676 11.1949 19.6364 11.3636C19.8052 11.5324 19.9 11.7613 19.9 12C19.9 12.2387 19.8052 12.4676 19.6364 12.6364C19.4676 12.8052 19.2387 12.9 19 12.9H7.14H6.92662L7.06315 13.064L10.6931 17.424L10.6932 17.424M7.14 11.1L10.6932 17.424M10.6932 17.424C10.769 17.515 10.8261 17.62 10.8612 17.733C10.8963 17.8461 10.9088 17.9649 10.898 18.0828C10.8871 18.2007 10.8531 18.3153 10.7979 18.42C10.7426 18.5247 10.6673 18.6175 10.5762 18.693L10.6932 17.424Z" fill="black" stroke="white" stroke-width="0.2"/>
</svg>
