<svg width="48" height="48" viewBox="0 0 48 48" fill="none" xmlns="http://www.w3.org/2000/svg">
<circle cx="24" cy="24" r="24" fill="#826FC9"/>
<path d="M29.9999 16.4794C28.4086 14.8881 26.2504 13.9941 23.9999 13.9941C21.7495 13.9941 19.5912 14.8881 17.9999 16.4794C16.4086 18.0707 15.5146 20.229 15.5146 22.4794C15.5146 24.7299 16.4086 26.8881 17.9999 28.4794L23.2699 33.7594C23.3629 33.8532 23.4735 33.9275 23.5954 33.9783C23.7172 34.0291 23.8479 34.0552 23.9799 34.0552C24.1119 34.0552 24.2426 34.0291 24.3645 33.9783C24.4864 33.9275 24.597 33.8532 24.6899 33.7594L29.9999 28.4294C31.5846 26.8447 32.4748 24.6955 32.4748 22.4544C32.4748 20.2134 31.5846 18.0641 29.9999 16.4794ZM28.5699 26.9994L23.9999 31.5894L19.4299 26.9994C18.5271 26.0957 17.9124 24.9447 17.6636 23.6917C17.4148 22.4388 17.5431 21.1402 18.0322 19.9601C18.5213 18.78 19.3493 17.7715 20.4116 17.0619C21.4738 16.3523 22.7225 15.9736 23.9999 15.9736C25.2773 15.9736 26.5261 16.3523 27.5883 17.0619C28.6505 17.7715 29.4785 18.78 29.9676 19.9601C30.4567 21.1402 30.585 22.4388 30.3362 23.6917C30.0875 24.9447 29.4728 26.0957 28.5699 26.9994ZM20.9999 19.4094C20.1926 20.2192 19.7393 21.316 19.7393 22.4594C19.7393 23.6029 20.1926 24.6997 20.9999 25.5094C21.5997 26.1102 22.3635 26.5205 23.1956 26.6888C24.0276 26.8571 24.8909 26.776 25.677 26.4556C26.4631 26.1351 27.1371 25.5897 27.6144 24.8877C28.0917 24.1856 28.3511 23.3583 28.3599 22.5094C28.3644 21.9426 28.2553 21.3807 28.0388 20.8568C27.8224 20.3329 27.5032 19.8578 27.0999 19.4594C26.7036 19.054 26.231 18.731 25.7094 18.5089C25.1877 18.2868 24.6273 18.1701 24.0603 18.1655C23.4934 18.1608 22.9311 18.2683 22.4059 18.4818C21.8807 18.6953 21.4029 19.0106 20.9999 19.4094ZM25.6899 24.0894C25.311 24.4742 24.8101 24.7153 24.2731 24.7717C23.736 24.828 23.196 24.6961 22.7454 24.3983C22.2949 24.1006 21.9617 23.6557 21.8029 23.1395C21.6441 22.6233 21.6696 22.0681 21.8749 21.5686C22.0802 21.0691 22.4526 20.6564 22.9285 20.4012C23.4044 20.1459 23.9542 20.0638 24.4839 20.169C25.0135 20.2742 25.4902 20.5602 25.8324 20.978C26.1746 21.3957 26.3611 21.9194 26.3599 22.4594C26.3454 23.0767 26.0864 23.6629 25.6399 24.0894H25.6899Z" fill="white"/>
</svg>
