<svg width="48" height="48" viewBox="0 0 48 48" fill="none" xmlns="http://www.w3.org/2000/svg">
<circle cx="24" cy="24" r="24" fill="#826FC9"/>
<path d="M31.4102 25C31.1902 25 30.9602 24.93 30.7402 24.88C30.295 24.7805 29.8573 24.6501 29.4302 24.49C28.9663 24.3212 28.4563 24.33 27.9985 24.5146C27.5406 24.6992 27.1673 25.0466 26.9502 25.49L26.7302 25.95C25.759 25.3992 24.8618 24.7271 24.0602 23.95C23.283 23.1484 22.611 22.2512 22.0602 21.28L22.5202 21.07C22.9635 20.8529 23.311 20.4795 23.4956 20.0217C23.6802 19.5639 23.6889 19.0539 23.5202 18.59C23.3614 18.159 23.2311 17.7181 23.1302 17.27C23.0802 17.05 23.0402 16.82 23.0102 16.6C22.8887 15.8956 22.5198 15.2577 21.9698 14.8012C21.4198 14.3447 20.7249 14.0996 20.0102 14.11H17.0002C16.5774 14.1094 16.1593 14.1982 15.7733 14.3706C15.3873 14.5429 15.042 14.7949 14.7602 15.11C14.4725 15.4337 14.2583 15.8158 14.1323 16.23C14.0063 16.6443 13.9714 17.081 14.0302 17.51C14.5738 21.6721 16.4754 25.5387 19.4402 28.51C22.4115 31.4748 26.278 33.3764 30.4402 33.92C30.57 33.9299 30.7004 33.9299 30.8302 33.92C31.5676 33.9211 32.2796 33.6505 32.8302 33.16C33.1453 32.8782 33.3973 32.5329 33.5696 32.1469C33.7419 31.7609 33.8307 31.3428 33.8302 30.92V27.92C33.8248 27.229 33.581 26.5611 33.1401 26.0291C32.6992 25.4971 32.0881 25.1336 31.4102 25ZM31.9002 31C31.8998 31.1395 31.8703 31.2775 31.8135 31.4049C31.7566 31.5324 31.6738 31.6465 31.5702 31.74C31.4606 31.8399 31.3301 31.9141 31.1883 31.9573C31.0465 32.0006 30.8968 32.0117 30.7502 31.99C27.0184 31.5026 23.5504 29.802 20.8802 27.15C18.2076 24.4775 16.4922 20.9974 16.0002 17.25C15.9784 17.1033 15.9896 16.9537 16.0328 16.8119C16.0761 16.67 16.1503 16.5396 16.2502 16.43C16.3448 16.3252 16.4605 16.2415 16.5898 16.1847C16.7191 16.1278 16.8589 16.0989 17.0002 16.1H20.0002C20.2313 16.0944 20.4573 16.169 20.6396 16.3112C20.822 16.4534 20.9494 16.6544 21.0002 16.88C21.0002 17.15 21.0902 17.43 21.1502 17.7C21.2657 18.2239 21.4195 18.7386 21.6102 19.24L20.2102 19.9C19.9695 20.0105 19.7825 20.2119 19.6902 20.46C19.5902 20.7035 19.5902 20.9765 19.6902 21.22C21.1294 24.3028 23.6074 26.7808 26.6902 28.22C26.9336 28.32 27.2067 28.32 27.4502 28.22C27.6983 28.1276 27.8997 27.9406 28.0102 27.7L28.6402 26.3C29.1561 26.4881 29.6839 26.6418 30.2202 26.76C30.4802 26.82 30.7602 26.87 31.0302 26.91C31.2558 26.9608 31.4568 27.0882 31.599 27.2705C31.7412 27.4529 31.8158 27.6788 31.8102 27.91L31.9002 31ZM26.0002 14C25.7702 14 25.5302 14 25.3002 14C25.035 14.0225 24.7896 14.1495 24.618 14.353C24.4464 14.5565 24.3626 14.8198 24.3852 15.085C24.4077 15.3502 24.5347 15.5956 24.7382 15.7672C24.9416 15.9388 25.205 16.0225 25.4702 16H26.0002C27.5915 16 29.1176 16.6321 30.2428 17.7574C31.368 18.8826 32.0002 20.4087 32.0002 22C32.0002 22.18 32.0002 22.35 32.0002 22.53C31.978 22.7938 32.0613 23.0556 32.2319 23.2581C32.4025 23.4606 32.6464 23.5871 32.9102 23.61H32.9902C33.2405 23.611 33.4821 23.5181 33.6673 23.3496C33.8524 23.1811 33.9676 22.9493 33.9902 22.7C33.9902 22.47 33.9902 22.23 33.9902 22C33.9902 19.88 33.1487 17.8467 31.6506 16.3467C30.1524 14.8467 28.1202 14.0027 26.0002 14ZM28.0002 22C28.0002 22.2652 28.1055 22.5196 28.2931 22.7071C28.4806 22.8946 28.735 23 29.0002 23C29.2654 23 29.5197 22.8946 29.7073 22.7071C29.8948 22.5196 30.0002 22.2652 30.0002 22C30.0002 20.9391 29.5787 19.9217 28.8286 19.1716C28.0785 18.4214 27.061 18 26.0002 18C25.735 18 25.4806 18.1054 25.2931 18.2929C25.1055 18.4804 25.0002 18.7348 25.0002 19C25.0002 19.2652 25.1055 19.5196 25.2931 19.7071C25.4806 19.8946 25.735 20 26.0002 20C26.5306 20 27.0393 20.2107 27.4144 20.5858C27.7895 20.9609 28.0002 21.4696 28.0002 22Z" fill="white"/>
</svg>
