<svg width="163" height="144" viewBox="0 0 163 144" fill="none" xmlns="http://www.w3.org/2000/svg">
<path d="M20.0064 45.8287C-11.7141 62.1696 -3.09371 118.536 27.5056 136.89C46.8796 148.512 63.6378 143.112 85.3565 136.89C124.607 125.647 179.104 96.9741 158.206 61.8984C141.153 33.278 106.687 54.8367 73.5721 51.1853C52.6757 48.8811 38.6954 36.2011 20.0064 45.8287Z" fill="#826FC9" fill-opacity="0.2"/>
<path d="M123.417 69.232C123.945 73.5857 120.042 75.1406 121.483 78.2342C122.925 81.3278 121.988 84.5606 119.037 85.1599C116.083 85.7592 113.877 86.0378 113.994 89.6885C114.114 93.3393 110.855 96.6045 108.231 94.8197C107.577 94.3759 106.87 93.8965 106.177 93.4235C105.989 93.2939 105.798 93.1644 105.613 93.038C105.571 93.0089 105.526 92.9797 105.484 92.9506C102.698 91.0491 101.736 87.3432 103.336 84.376C103.984 83.1742 104.972 82.2283 106.478 82.0404C111.192 81.4541 107.862 77.9038 109.578 75.0434C111.558 71.749 115.024 72.9994 116.232 70.4014C117.913 66.7863 122.892 64.8751 123.42 69.2288L123.417 69.232Z" fill="#CEC0E7"/>
<path d="M119.153 73.0614L106.173 93.4207C105.985 93.2911 105.794 93.1616 105.609 93.0352L118.576 72.6921C118.677 72.5334 118.887 72.488 119.046 72.5884C119.205 72.6889 119.25 72.8994 119.15 73.0582L119.153 73.0614Z" fill="#AFAFAF"/>
<path d="M130.933 86.1093C129.591 90.612 125.095 90.4727 125.189 94.1299C125.286 97.7839 122.986 100.56 119.831 99.8927C116.673 99.2222 114.386 98.5516 112.944 102.189C111.503 105.827 106.91 107.645 105.092 104.774C104.639 104.059 104.15 103.284 103.67 102.526C103.541 102.319 103.408 102.112 103.281 101.908C103.252 101.859 103.22 101.814 103.191 101.765C101.267 98.7104 101.901 94.6579 104.739 92.4228C105.889 91.519 107.263 91.0104 108.821 91.4704C113.702 92.9055 111.943 87.9978 114.849 85.9214C118.199 83.5275 121.072 86.2356 123.365 84.1981C126.559 81.3636 132.267 81.6098 130.926 86.1125L130.933 86.1093Z" fill="#8F88AA"/>
<path d="M125.108 88.0551L103.67 102.522C103.54 102.315 103.408 102.107 103.281 101.903L124.7 87.4494C124.868 87.336 125.095 87.3813 125.205 87.5465C125.319 87.715 125.273 87.9417 125.108 88.0519V88.0551Z" fill="#CEC0E7"/>
<path d="M59.1267 55.9257C58.819 59.4145 61.9741 60.5515 60.9019 63.0587C59.8329 65.566 60.6622 68.1186 63.0334 68.5203C65.4046 68.922 67.1733 69.0872 67.1733 72.0026C67.1733 74.918 69.8554 77.4382 71.9027 75.9481C72.4113 75.5788 72.9652 75.1739 73.5029 74.7819C73.652 74.675 73.7977 74.5681 73.9435 74.4612C73.9759 74.4353 74.0115 74.4127 74.0439 74.3867C76.2175 72.7995 76.8881 69.8193 75.534 67.4902C74.9866 66.5475 74.1735 65.8187 72.9685 65.7085C69.1946 65.3619 71.7602 62.4465 70.3154 60.2081C68.6536 57.6296 65.9196 58.718 64.8895 56.6772C63.4577 53.8363 59.4344 52.4401 59.1267 55.9289V55.9257Z" fill="#CEC0E7"/>
<path d="M62.625 58.8751L73.5028 74.7804C73.6518 74.6735 73.7976 74.5666 73.9433 74.4597L63.0753 58.5674C62.9911 58.4443 62.8226 58.4119 62.6963 58.4961C62.5732 58.5804 62.5408 58.7488 62.625 58.8751Z" fill="#AFAFAF"/>
<path d="M50.935 66.2464C52.1595 70.3669 56.2767 70.2373 56.1892 73.5836C56.1018 76.9266 58.2041 79.4662 61.0936 78.854C63.9831 78.2417 66.0757 77.6263 67.3941 80.9563C68.7126 84.2831 72.914 85.9482 74.579 83.3211C74.9937 82.6667 75.4407 81.9605 75.878 81.2641C75.9979 81.0729 76.1177 80.8851 76.2343 80.6972C76.2602 80.6551 76.2894 80.6097 76.3153 80.5676C78.0775 77.772 77.4944 74.0662 74.8997 72.0222C73.8469 71.1962 72.5901 70.7297 71.1647 71.1508C66.7009 72.4627 68.3076 67.973 65.6481 66.0715C62.5837 63.8817 59.9566 66.3598 57.8575 64.4939C54.9356 61.8992 49.7138 62.126 50.9415 66.2464H50.935Z" fill="#8F88AA"/>
<path d="M56.2649 68.0289L75.8759 81.2649C75.9958 81.0738 76.1156 80.8859 76.2323 80.698L56.6374 67.475C56.4852 67.3713 56.2778 67.4134 56.1742 67.5657C56.0705 67.7179 56.1126 67.9252 56.2649 68.0289V68.0289Z" fill="#CEC0E7"/>
<path d="M38.347 16.6064C39.6104 20.2831 43.3226 20.011 43.3712 23.0365C43.4198 26.0621 45.4153 28.2778 48.0003 27.6137C50.5885 26.9496 52.4544 26.318 53.7728 29.2723C55.088 32.2298 58.9493 33.5709 60.3519 31.1349C60.7018 30.5291 61.0775 29.8715 61.4468 29.2269C61.5472 29.052 61.6477 28.8738 61.7481 28.7021C61.7708 28.6633 61.7934 28.6212 61.8161 28.5823C63.2997 25.9876 62.6357 22.664 60.2126 20.9147C59.2311 20.2086 58.0779 19.836 56.8048 20.2669C52.8204 21.6242 54.1032 17.5037 51.6283 15.8873C48.7777 14.0246 46.4972 16.3635 44.5277 14.76C41.7904 12.5281 37.0804 12.9297 38.3438 16.6064H38.347Z" fill="#CEC0E7"/>
<path d="M43.2278 18.0135L61.4492 29.2282C61.5496 29.0533 61.65 28.8751 61.7504 28.7034L43.5453 17.5017C43.4027 17.4143 43.2181 17.4596 43.1306 17.5989C43.0432 17.7414 43.0885 17.9261 43.2278 18.0135Z" fill="#AFAFAF"/>
<path d="M54.6311 22.2188H53.0859V104.373H54.6311V22.2188Z" fill="#A09ECB"/>
<path d="M111.225 22.2188H109.68V104.373H111.225V22.2188Z" fill="#A09ECB"/>
<path d="M67.6943 57.361C67.6943 57.361 67.6943 57.361 67.3093 57.7372L67.6943 57.361L67.6837 57.3502L67.6725 57.3399C61.8386 52.006 59.1211 43.5438 57.8756 36.3302C57.2549 32.7355 57.0041 29.4775 56.9087 27.1181C56.861 25.9389 56.8521 24.9853 56.8552 24.3278C56.856 24.1366 56.8579 23.9705 56.8602 23.8312H107.238C107.24 23.974 107.242 24.1449 107.243 24.342C107.246 25.0086 107.236 25.975 107.187 27.1693C107.089 29.5588 106.831 32.8558 106.195 36.4861C104.918 43.7716 102.136 52.2888 96.1698 57.5691L96.1523 57.5846L96.1363 57.6015C95.6947 58.0665 94.6845 59.1572 93.7814 60.323C93.3305 60.9051 92.8972 61.5176 92.574 62.0879C92.2641 62.6347 92.0044 63.2285 92.0044 63.7476C92.0044 64.2582 92.2053 64.8235 92.4583 65.3485C92.7178 65.8873 93.0637 66.4465 93.4165 66.9621C94.1227 67.9941 94.8879 68.8963 95.1352 69.1829L95.1695 69.2228L95.2109 69.2552C101.674 74.3142 104.698 83.0222 106.091 90.5676C106.785 94.3264 107.069 97.7661 107.179 100.266C107.234 101.516 107.245 102.53 107.243 103.23C107.242 103.448 107.24 103.635 107.238 103.79H56.8634C56.861 103.636 56.8589 103.449 56.8582 103.232C56.8559 102.536 56.8671 101.528 56.9213 100.285C57.0298 97.798 57.3102 94.375 57.9972 90.6311C59.3762 83.1159 62.3717 74.4294 68.7768 69.3422L68.8157 69.3113L68.8483 69.2738L68.8572 69.2636C68.9595 69.1464 69.7146 68.2821 70.459 67.231C70.845 66.6859 71.2366 66.0789 71.5337 65.4914C71.8224 64.9206 72.058 64.3 72.058 63.7476C72.058 63.4411 71.9702 63.1214 71.8495 62.8184C71.7266 62.5098 71.5559 62.1849 71.3595 61.8589C70.9669 61.2071 70.4479 60.5117 69.9315 59.8741C68.8971 58.5969 67.834 57.5039 67.7071 57.3741L67.6983 57.3651L67.6954 57.3622L67.6946 57.3613L67.6944 57.3611L67.6943 57.361Z" fill="#FBFBFB" stroke="#8D8D8D" stroke-width="1.07647"/>
<path d="M54.5705 104.023H109.761C111.706 104.023 113.282 105.599 113.282 107.543V107.955C113.282 109.899 111.706 111.475 109.761 111.475H54.5705C52.6262 111.475 51.05 109.899 51.05 107.955V107.543C51.05 105.599 52.6262 104.023 54.5705 104.023Z" fill="white" stroke="#BABABA" stroke-width="1.07647"/>
<path d="M113.814 107.751H50.5039C50.5039 106.575 50.9801 105.506 51.7543 104.735C52.5253 103.964 53.591 103.484 54.7701 103.484H109.551C111.906 103.484 113.817 105.396 113.817 107.747L113.814 107.751Z" fill="#A09ECB"/>
<path d="M80.9976 64.9717C80.9976 64.9717 81.6001 60.3493 73.8971 56.1997C69.7995 53.9906 62.5467 45.8535 61.643 35.504C61.643 35.504 72.4913 33.4277 82.7404 39.8576C94.6803 47.3501 100.573 37.697 103.031 32.2227C103.031 32.2227 104.307 45.2834 95.9307 52.3806C91.0556 56.514 83.4465 59.2123 83.3137 64.9717C83.3137 64.9717 84.6191 82.7521 89.1412 89.4152C93.0801 95.2233 97.6475 95.8128 101.263 98.8253C102.976 100.254 103.857 102.019 104.307 103.483H60.0039C60.4542 102.019 61.332 100.254 63.0488 98.8253C66.6638 95.8128 71.2312 95.2233 75.1702 89.4152C79.6922 82.7521 80.9976 64.9717 80.9976 64.9717Z" fill="#DB9FA7"/>
<path d="M101.932 34.4521C98.9871 39.8619 93.1725 46.4053 82.7385 39.8586C72.4925 33.4285 61.6406 35.5049 61.6406 35.5049C61.6406 35.5049 63.8499 33.6779 68.8741 33.7816C77.3968 33.9533 81.6663 37.1602 85.3494 39.2561C89.3176 41.5172 97.5845 41.3746 101.928 34.4521H101.932Z" fill="#D0AEB4"/>
<path d="M113.28 19.6826V19.9068C113.28 20.9379 112.865 21.8678 112.188 22.5413L112.187 22.5421C111.513 23.2165 110.579 23.6348 109.552 23.6348H54.7747C52.7175 23.6348 51.05 21.9651 51.05 19.9068C51.05 18.8795 51.4653 17.949 52.1427 17.2716C52.8173 16.597 53.7478 16.1789 54.7779 16.1789H109.559C111.542 16.1789 113.165 17.7309 113.28 19.6826Z" fill="white" stroke="#BABABA" stroke-width="1.07647"/>
<path d="M113.814 19.9068H50.5039C50.5039 18.731 50.9801 17.6652 51.7543 16.891C52.5253 16.12 53.591 15.6406 54.7701 15.6406H109.551C111.906 15.6406 113.817 17.5518 113.817 19.9036L113.814 19.9068Z" fill="#A09ECB"/>
<path d="M127.141 9.50744C127.141 8.51296 127.95 7.70312 128.945 7.70312C129.939 7.70312 130.749 8.51296 130.749 9.50744C130.749 10.5019 129.939 11.3118 128.945 11.3118C127.95 11.3118 127.141 10.5019 127.141 9.50744V9.50744ZM127.708 9.50744C127.708 10.1909 128.261 10.7449 128.945 10.7449C129.628 10.7449 130.182 10.1909 130.182 9.50744C130.182 8.82394 129.628 8.27001 128.945 8.27001C128.261 8.27001 127.708 8.82394 127.708 9.50744Z" fill="#826FC9"/>
<path d="M120.652 15.8356C120.652 14.8411 121.462 14.0312 122.457 14.0312C123.451 14.0312 124.261 14.8411 124.261 15.8356C124.261 16.83 123.451 17.6399 122.457 17.6399C121.462 17.6399 120.652 16.83 120.652 15.8356ZM121.219 15.8356C121.219 16.5191 121.773 17.073 122.457 17.073C123.14 17.073 123.694 16.5191 123.694 15.8356C123.694 15.1521 123.14 14.5981 122.457 14.5981C121.773 14.5981 121.219 15.1521 121.219 15.8356Z" fill="#DB9FA7"/>
<path d="M120.223 23.4944C120.379 23.4944 120.505 23.3681 120.505 23.2126V21.9654C120.505 21.8099 120.379 21.6836 120.223 21.6836C120.068 21.6836 119.941 21.8099 119.941 21.9654V23.2126C119.941 23.3681 120.068 23.4944 120.223 23.4944Z" fill="#826FC9"/>
<path d="M120.223 25.678C120.379 25.678 120.505 25.5517 120.505 25.3962V24.149C120.505 23.9935 120.379 23.8672 120.223 23.8672C120.068 23.8672 119.941 23.9935 119.941 24.149V25.3962C119.941 25.5517 120.068 25.678 120.223 25.678Z" fill="#826FC9"/>
<path d="M118.473 23.9621H119.594C119.75 23.9621 119.876 23.8357 119.876 23.6803C119.876 23.5248 119.75 23.3984 119.594 23.3984H118.473C118.318 23.3984 118.191 23.5248 118.191 23.6803C118.191 23.8357 118.318 23.9621 118.473 23.9621Z" fill="#826FC9"/>
<path d="M120.856 23.9621H121.977C122.132 23.9621 122.259 23.8357 122.259 23.6803C122.259 23.5248 122.132 23.3984 121.977 23.3984H120.856C120.701 23.3984 120.574 23.5248 120.574 23.6803C120.574 23.8357 120.701 23.9621 120.856 23.9621Z" fill="#826FC9"/>
<path d="M130.18 16.5061C130.336 16.5061 130.462 16.3798 130.462 16.2243V14.9771C130.462 14.8216 130.336 14.6953 130.18 14.6953C130.025 14.6953 129.898 14.8216 129.898 14.9771V16.2243C129.898 16.3798 130.025 16.5061 130.18 16.5061Z" fill="#DB9FA7"/>
<path d="M130.18 18.6858C130.336 18.6858 130.462 18.5595 130.462 18.404V17.1568C130.462 17.0013 130.336 16.875 130.18 16.875C130.025 16.875 129.898 17.0013 129.898 17.1568V18.404C129.898 18.5595 130.025 18.6858 130.18 18.6858Z" fill="#DB9FA7"/>
<path d="M128.43 16.9738H129.551C129.707 16.9738 129.833 16.8475 129.833 16.692C129.833 16.5365 129.707 16.4102 129.551 16.4102H128.43C128.275 16.4102 128.148 16.5365 128.148 16.692C128.148 16.8475 128.275 16.9738 128.43 16.9738Z" fill="#DB9FA7"/>
<path d="M130.813 16.9738H131.934C132.089 16.9738 132.216 16.8475 132.216 16.692C132.216 16.5365 132.089 16.4102 131.934 16.4102H130.813C130.658 16.4102 130.531 16.5365 130.531 16.692C130.531 16.8475 130.658 16.9738 130.813 16.9738Z" fill="#DB9FA7"/>
<path d="M29.7617 1.80432C29.7617 0.809838 30.5716 0 31.566 0C32.5605 0 33.3704 0.809838 33.3704 1.80432C33.3704 2.7988 32.5605 3.60864 31.566 3.60864C30.5716 3.60864 29.7617 2.7988 29.7617 1.80432V1.80432ZM32.8035 1.80432C32.8035 1.12082 32.2495 0.566886 31.566 0.566886C30.8825 0.566886 30.3286 1.12082 30.3286 1.80432C30.3286 2.48782 30.8825 3.04175 31.566 3.04175C32.2495 3.04175 32.8035 2.48782 32.8035 1.80432Z" fill="#826FC9"/>
<path d="M25.4648 9.20666C25.4648 8.21218 26.2747 7.40234 27.2692 7.40234C28.2636 7.40234 29.0735 8.21218 29.0735 9.20666C29.0735 10.2011 28.2636 11.011 27.2692 11.011C26.2747 11.011 25.4648 10.2011 25.4648 9.20666V9.20666ZM28.5066 9.20666C28.5066 8.52316 27.9527 7.96923 27.2692 7.96923C26.5857 7.96923 26.0317 8.52316 26.0317 9.20666C26.0317 9.89017 26.5857 10.4441 27.2692 10.4441C27.9527 10.4441 28.5066 9.89017 28.5066 9.20666Z" fill="#DB9FA7"/>
<path d="M19.7227 12.2857C19.7227 12.1302 19.849 12.0039 20.0045 12.0039H21.2516C21.4071 12.0039 21.5335 12.1302 21.5335 12.2857C21.5335 12.4412 21.4071 12.5676 21.2516 12.5676H20.0045C19.849 12.5676 19.7227 12.4412 19.7227 12.2857V12.2857Z" fill="#826FC9"/>
<path d="M17.5391 12.2857C17.5391 12.1302 17.6654 12.0039 17.8209 12.0039H19.068C19.2235 12.0039 19.3499 12.1302 19.3499 12.2857C19.3499 12.4412 19.2235 12.5676 19.068 12.5676H17.8209C17.6654 12.5676 17.5391 12.4412 17.5391 12.2857Z" fill="#826FC9"/>
<path d="M19.2461 14.0355V12.9146C19.2461 12.7591 19.3724 12.6328 19.5279 12.6328C19.6834 12.6328 19.8097 12.7591 19.8097 12.9146V14.0355C19.8097 14.1909 19.6834 14.3173 19.5279 14.3173C19.3724 14.3173 19.2461 14.1909 19.2461 14.0355Z" fill="#826FC9"/>
<path d="M19.2461 11.6526V10.5318C19.2461 10.3763 19.3724 10.25 19.5279 10.25C19.6834 10.25 19.8097 10.3763 19.8097 10.5318V11.6526C19.8097 11.8081 19.6834 11.9345 19.5279 11.9345C19.3724 11.9345 19.2461 11.8081 19.2461 11.6526Z" fill="#826FC9"/>
<path d="M36.6523 7.40292C36.6523 7.24743 36.7787 7.12109 36.9342 7.12109H38.1813C38.3368 7.12109 38.4631 7.24743 38.4631 7.40292C38.4631 7.5584 38.3368 7.68474 38.1813 7.68474H36.9342C36.7787 7.68474 36.6523 7.5584 36.6523 7.40292Z" fill="#DB9FA7"/>
<path d="M34.4688 7.40292C34.4688 7.24743 34.5951 7.12109 34.7506 7.12109H35.9977C36.1532 7.12109 36.2795 7.24743 36.2795 7.40292C36.2795 7.5584 36.1532 7.68474 35.9977 7.68474H34.7506C34.5951 7.68474 34.4688 7.5584 34.4688 7.40292Z" fill="#DB9FA7"/>
<path d="M36.1875 9.15655V8.03573C36.1875 7.88024 36.3138 7.75391 36.4693 7.75391C36.6248 7.75391 36.7511 7.88024 36.7511 8.03573V9.15655C36.7511 9.31203 36.6248 9.43837 36.4693 9.43837C36.3138 9.43837 36.1875 9.31203 36.1875 9.15655Z" fill="#DB9FA7"/>
<path d="M36.1875 6.77373V5.65292C36.1875 5.49743 36.3138 5.37109 36.4693 5.37109C36.6248 5.37109 36.7511 5.49743 36.7511 5.65292V6.77373C36.7511 6.92922 36.6248 7.05556 36.4693 7.05556C36.3138 7.05556 36.1875 6.92922 36.1875 6.77373Z" fill="#DB9FA7"/>
</svg>
