<svg width="126" height="126" viewBox="0 0 126 126" fill="none" xmlns="http://www.w3.org/2000/svg">
<rect x="0.398438" y="0.957031" width="124.961" height="124.961" rx="62.4805" fill="#8B63DA"/>
<g clip-path="url(#clip0_941_17508)">
<path d="M91.7386 85.9865H56.3454L60.163 77.3808H88.0504L96.3326 51.111C96.3326 51.111 56.2807 50.8521 46.2516 50.7874L42.1752 36.8114H41.3988C39.4577 36.8114 37.4518 36.7467 35.5107 36.7467C35.1872 36.3584 34.6696 36.0996 34.0872 36.0996H26.0639C25.0287 36.0996 24.1875 36.9408 24.1875 37.976C24.1875 39.0113 25.0287 39.8524 26.0639 39.8524H34.0225C34.7343 39.8524 35.3166 39.4642 35.6401 38.9466C37.3224 38.9466 39.0694 38.9466 40.5576 39.0113L44.0517 50.8521C43.987 50.8521 43.987 50.8521 43.987 50.8521L44.3752 52.0168L44.634 52.9227H44.6987L53.3043 77.4455H57.8336L53.1102 88.1217H58.7395C57.6395 89.0923 56.9925 90.5158 56.9925 92.0687C56.9925 95.045 59.3865 97.4391 62.3629 97.4391C65.3393 97.4391 67.7334 95.045 67.7334 92.0687C67.7334 90.5158 67.0863 89.0923 65.9864 88.1217H80.3507C79.2507 89.0923 78.6036 90.5158 78.6036 92.0687C78.6036 95.045 80.9977 97.4391 83.9741 97.4391C86.9505 97.4391 89.3445 95.045 89.3445 92.0687C89.3445 90.5158 88.6975 89.0923 87.5975 88.1217H91.7386C92.3209 88.1217 92.7738 87.6688 92.7738 87.0864C92.7738 86.5041 92.3209 85.9865 91.7386 85.9865ZM49.6162 60.3636H57.2513V66.6399H51.8161L49.6162 60.3636ZM59.3865 60.3636H69.4804V66.6399H59.3865V60.3636ZM81.6447 66.6399H71.5509V60.3636H81.6447V66.6399ZM83.7153 60.3636H91.2209L89.2151 66.6399H83.6506V60.3636H83.7153ZM81.6447 68.7752V75.3103H71.5509V68.7752H81.6447ZM71.5509 58.2931V53.0521C75.0449 53.0521 78.4742 53.1168 81.6447 53.1168V58.2931H71.5509ZM69.4157 58.2931H59.3865V52.9874C62.557 52.9874 65.9863 53.0521 69.4804 53.0521V58.2931H69.4157ZM69.4157 68.7752V75.3103H59.3865V68.7752H69.4157ZM86.5622 75.2456H83.78V68.7752H88.6328L86.5622 75.2456ZM91.9327 58.2931H83.78V53.1168C87.8563 53.1168 91.2856 53.1815 93.5503 53.1815L91.9327 58.2931ZM57.2513 52.9874V58.2931H48.9045L47.028 52.9227C49.4221 52.9227 53.0455 52.9227 57.2513 52.9874ZM52.5926 68.7752H57.316V75.3103H54.9219L52.5926 68.7752ZM62.3629 95.3039C60.5512 95.3039 59.1277 93.8157 59.1277 92.0687C59.1277 90.2569 60.6159 88.8334 62.3629 88.8334C64.1099 88.8334 65.5981 90.3216 65.5981 92.0687C65.5981 93.8804 64.1746 95.3039 62.3629 95.3039ZM83.9094 95.3039C82.0977 95.3039 80.6742 93.8157 80.6742 92.0687C80.6742 90.2569 82.1624 88.8334 83.9094 88.8334C85.7211 88.8334 87.1446 90.3216 87.1446 92.0687C87.2093 93.8804 85.7211 95.3039 83.9094 95.3039Z" fill="#D9D9D9"/>
<path d="M44.0518 59.2628H23.7994C23.4759 59.2628 23.1523 59.004 23.1523 58.6158C23.1523 58.2276 23.4112 57.9688 23.7994 57.9688H44.0518C44.3753 57.9688 44.6988 58.2276 44.6988 58.6158C44.6988 59.004 44.3753 59.2628 44.0518 59.2628Z" fill="url(#paint0_linear_941_17508)"/>
<path d="M48.7105 72.2042H23.7994C23.4759 72.2042 23.1523 71.9454 23.1523 71.5572C23.1523 71.2337 23.4112 70.9102 23.7994 70.9102H48.6458C48.9693 70.9102 49.2928 71.169 49.2928 71.5572C49.3575 71.9454 49.034 72.2042 48.7105 72.2042Z" fill="url(#paint1_linear_941_17508)"/>
<path d="M52.7852 65.671H13.6392C13.3157 65.671 12.9922 65.4122 12.9922 65.024C12.9922 64.7005 13.251 64.377 13.6392 64.377H52.7852C53.1087 64.377 53.4322 64.6358 53.4322 65.024C53.4322 65.3475 53.1087 65.671 52.7852 65.671Z" fill="url(#paint2_linear_941_17508)"/>
</g>
<defs>
<linearGradient id="paint0_linear_941_17508" x1="23.1872" y1="58.6342" x2="44.664" y2="58.6342" gradientUnits="userSpaceOnUse">
<stop offset="0.0111743" stop-color="#4DE3FF"/>
<stop offset="1" stop-color="#7097FE"/>
</linearGradient>
<linearGradient id="paint1_linear_941_17508" x1="23.1872" y1="71.592" x2="49.3285" y2="71.592" gradientUnits="userSpaceOnUse">
<stop offset="0.0111743" stop-color="#4DE3FF"/>
<stop offset="1" stop-color="#7097FE"/>
</linearGradient>
<linearGradient id="paint2_linear_941_17508" x1="12.9922" y1="65.0289" x2="53.4085" y2="65.0289" gradientUnits="userSpaceOnUse">
<stop offset="0.0111743" stop-color="#4DE3FF"/>
<stop offset="1" stop-color="#7097FE"/>
</linearGradient>
<clipPath id="clip0_941_17508">
<rect width="83.4036" height="62.4395" fill="white" transform="translate(13 35)"/>
</clipPath>
</defs>
</svg>
