<svg width="36" height="36" viewBox="0 0 36 36" fill="none" xmlns="http://www.w3.org/2000/svg">
<path d="M18.0005 0C8.05991 0 0.000488281 8.05886 0.000488281 18.0004C0.000488281 27.9419 8.06361 36 18.0005 36C27.9374 36 36.0005 27.9411 36.0005 18.0004C36.0005 8.05959 27.9418 0 18.0005 0ZM3.63851 9.66338H27.9818V11.5453H23.2704V20.8817H3.63851V9.66338ZM4.07125 23.3872H3.68289V21.2967H5.80816C5.36194 21.4559 4.96618 21.7311 4.66157 22.094C4.35695 22.4568 4.15448 22.8943 4.07495 23.3613C4.07347 23.3702 4.07273 23.3813 4.07125 23.3872ZM6.71285 26.3366C6.04443 26.3366 5.40339 26.0711 4.93074 25.5984C4.4581 25.1258 4.19257 24.4847 4.19257 23.8163C4.19272 23.6724 4.20534 23.5289 4.2303 23.3872C4.33124 22.8031 4.6349 22.2733 5.08788 21.8909C5.54086 21.5085 6.11415 21.2981 6.70693 21.2967H6.71877C7.31163 21.2981 7.88503 21.5085 8.33813 21.8908C8.79124 22.2732 9.09504 22.803 9.19615 23.3872C9.22049 23.529 9.23286 23.6725 9.23313 23.8163C9.23362 24.1476 9.16879 24.4757 9.04235 24.7819C8.91591 25.0881 8.73035 25.3664 8.49627 25.6008C8.26219 25.8353 7.98419 26.0212 7.67818 26.1481C7.37216 26.275 7.04413 26.3403 6.71285 26.3403V26.3366ZM26.6118 26.3366C26.1133 26.3366 25.626 26.1888 25.2116 25.9119C24.7971 25.6349 24.4741 25.2413 24.2833 24.7808C24.0926 24.3202 24.0427 23.8135 24.1399 23.3246C24.2371 22.8357 24.4772 22.3866 24.8296 22.0341C25.1821 21.6817 25.6312 21.4416 26.1201 21.3444C26.609 21.2471 27.1157 21.297 27.5762 21.4878C28.0367 21.6786 28.4304 22.0016 28.7073 22.4161C28.9842 22.8305 29.132 23.3178 29.132 23.8163C29.1325 24.1473 29.0678 24.4752 28.9415 24.7812C28.8153 25.0872 28.63 25.3654 28.3962 25.5998C28.1625 25.8342 27.8848 26.0202 27.5791 26.1473C27.2735 26.2743 26.9457 26.3399 26.6147 26.3403L26.6118 26.3366ZM31.8321 22.0794L32.3595 22.1104C32.3595 22.5114 32.3491 22.9242 32.3491 23.3244C31.3875 23.3244 30.4258 23.3244 29.4642 23.3133C29.1476 21.9203 27.7968 20.8018 26.3403 21.0126C25.0213 21.0866 24.1033 22.2162 23.7334 23.3872H9.35445C9.35445 23.3791 9.35445 23.3702 9.35445 23.3613C9.27507 22.8943 9.07273 22.4569 8.76824 22.0941C8.46375 21.7312 8.0681 21.456 7.62198 21.2967H23.7112C23.6868 18.8415 23.7112 16.3833 23.7112 13.928L23.7039 13.9214V12.072L23.712 12.0787H23.726C25.2203 12.0683 26.7138 12.0579 28.2185 12.0787C28.1836 12.6321 28.2388 13.1874 28.3819 13.7231C28.5883 14.5679 28.9294 15.3905 29.1365 16.2383C29.3355 16.7376 29.3192 17.4426 29.8422 17.7237C29.8732 17.7408 29.9054 17.7559 29.9384 17.7688C30.1933 17.8946 30.4503 18.0179 30.7092 18.1387C31.079 18.3111 31.4489 18.4797 31.8188 18.6477C31.8558 19.7891 31.8239 20.9283 31.835 22.0794H31.8321Z" fill="#0D3D12"/>
</svg>
