<svg width="36" height="36" viewBox="0 0 36 36" fill="none" xmlns="http://www.w3.org/2000/svg">
<path d="M17.9997 0C8.05916 0 0.000488281 8.05868 0.000488281 18C0.000488281 27.9413 8.05916 36 17.9997 36C27.9403 36 35.9997 27.9413 35.9997 18C35.9997 8.05868 27.941 0 17.9997 0ZM5.84514 18C5.84514 11.781 10.5395 6.64875 16.5713 5.9349V3.70016L22.2909 7.27456L16.5713 10.849V8.82579C12.1233 9.51744 8.7057 13.3626 8.7057 17.9985C8.70817 19.8349 9.25389 21.6296 10.2742 23.1565C11.2945 24.6835 12.7437 25.8744 14.4394 26.5795L11.6358 28.3312C8.16642 26.1933 5.84514 22.3674 5.84514 18ZM25.4881 17.7041V19.2731H24.414V21.4057H22.4322V19.2731H18.468V17.9105L21.853 12.4609H24.4125V17.7041H25.4881ZM13.707 13.9884C12.937 13.9884 12.2624 14.3738 11.7948 14.7281L11.203 13.228C11.8769 12.719 12.9229 12.3062 14.1339 12.3062C16.1571 12.3062 17.2718 13.4898 17.2718 15.1172C17.2718 16.6174 16.1844 17.8151 14.8914 18.9705L14.0651 19.6592V19.6866H17.4368V21.4065H11.0921V20.1386L12.2483 19.0926C14.2027 17.3446 15.1525 16.34 15.1799 15.294C15.1799 14.5669 14.7397 13.9891 13.707 13.9891V13.9884ZM19.4282 30.0629V32.2991L13.7093 28.7247L19.4282 25.1495V27.172C23.8769 26.4818 27.2953 22.6367 27.2953 17.9993C27.2929 16.1627 26.7472 14.3679 25.7267 12.8409C24.7063 11.3139 23.2568 10.1231 21.5608 9.41832L24.3652 7.66736C27.8323 9.8126 30.1551 13.6326 30.1551 18.0015C30.1558 24.219 25.4607 29.3513 19.4296 30.0636L19.4282 30.0629Z" fill="#0D3D12"/>
</svg>
