<svg width="36" height="36" viewBox="0 0 36 36" fill="none" xmlns="http://www.w3.org/2000/svg">
<path d="M18 0C8.05869 0 0 8.05867 0 18C0 27.9413 8.05869 36 18 36C27.9413 36 36 27.9413 36 18C36 8.05867 27.9406 0 18 0ZM27.169 7.81086H25.842C25.6437 12.6007 23.8927 15.7342 20.8487 16.7476V19.4107C23.8587 20.4115 25.6038 23.4903 25.836 28.1899H27.1676V30.6976H8.83024V28.1899H10.4266C10.6559 23.4903 12.4017 20.4115 15.4146 19.4107V16.7476C12.3677 15.7342 10.616 12.6007 10.4177 7.81086H8.83024V5.30316H27.169V7.81086Z" fill="#0D3D12"/>
</svg>
