<svg width="36" height="36" viewBox="0 0 36 36" fill="none" xmlns="http://www.w3.org/2000/svg">
<path d="M18 0C8.05869 0 0 8.05867 0 18C0 27.9413 8.05869 36 18 36C27.9413 36 36 27.9413 36 18C36 8.05867 27.9413 0 18 0ZM25.9152 13.8205L25.1244 14.1075C25.0171 14.1491 24.9018 14.1661 24.7871 14.1571C24.7716 14.305 24.7464 14.453 24.7212 14.5942C24.8357 14.6163 24.9435 14.6644 25.0364 14.7348L25.7332 15.243C26.1401 15.5389 26.0631 15.8148 25.5623 15.8585L24.7235 15.9324C24.601 15.9447 24.4773 15.927 24.3632 15.8807C24.31 16.0197 24.2515 16.1558 24.1886 16.2905C24.3019 16.3394 24.4013 16.4156 24.4779 16.5124L25.0186 17.1841C25.3337 17.5739 25.1888 17.8202 24.6931 17.7337L23.8654 17.5857C23.7367 17.565 23.6157 17.5107 23.5147 17.4282C23.426 17.5488 23.3387 17.6701 23.2425 17.7847C23.3462 17.8622 23.4273 17.9659 23.4778 18.0851L23.8254 18.8736C24.0289 19.3315 23.8254 19.532 23.369 19.3175L22.6078 18.9616C22.4843 18.9072 22.3785 18.8193 22.3023 18.7079C22.2564 18.7449 22.2099 18.7819 22.1632 18.8159L24.597 29.6775C24.7272 30.162 24.4749 30.3625 24.0318 30.1258L22.4517 29.2795C22.0079 29.0435 21.3488 29.1242 20.976 29.46L19.7251 30.5896C19.3552 30.9262 19.0342 30.793 19.0149 30.2937L18.6339 20.6031C18.6325 20.608 18.6312 20.6129 18.6303 20.6179L18.3196 21.4228C18.1383 21.8903 17.8528 21.8873 17.6812 21.4154L17.4977 20.9094L17.1279 30.2929C17.1086 30.7945 16.7905 30.9276 16.4184 30.5888L15.1676 29.46C14.7977 29.1234 14.1319 29.0428 13.6918 29.2795L12.1124 30.125C11.7219 30.3351 11.4792 30.199 11.5207 29.8328V29.8291C11.5265 29.7776 11.5364 29.7267 11.5502 29.6767L11.5547 29.659L13.731 18.7161C13.6532 18.8318 13.5431 18.9221 13.4144 18.9757L12.6251 19.3256C12.1664 19.5283 11.9682 19.3256 12.1812 18.8699L12.5385 18.1073C12.5937 17.9809 12.6841 17.873 12.7989 17.7966C12.7028 17.6812 12.6125 17.5599 12.5237 17.4378C12.4183 17.526 12.2901 17.5827 12.1539 17.6013L11.301 17.7344C10.8053 17.8084 10.667 17.5621 10.988 17.1789L11.5295 16.5338C11.6138 16.4304 11.7245 16.3517 11.8498 16.306C11.7862 16.1699 11.7263 16.033 11.6716 15.8917C11.5519 15.9435 11.4207 15.9624 11.2913 15.9465L10.4332 15.854C9.93466 15.8 9.86512 15.5248 10.2742 15.2363L10.9644 14.7548C11.0671 14.6799 11.1873 14.6328 11.3135 14.6179C11.2876 14.47 11.2625 14.322 11.2455 14.1741C11.1238 14.1872 11.0008 14.1699 10.8874 14.1238L10.0826 13.8131C9.61436 13.6319 9.61804 13.3463 10.0893 13.174L10.8808 12.8869C10.9922 12.8442 11.1121 12.8285 11.2307 12.8411C11.244 12.6931 11.264 12.5452 11.2854 12.3972C11.1702 12.3751 11.0616 12.3268 10.9681 12.2559L10.2712 11.7477C9.86587 11.4518 9.94279 11.1782 10.4429 11.1338L11.2817 11.0598C11.3939 11.0483 11.5072 11.0612 11.6139 11.0975C11.6642 10.9577 11.7152 10.8179 11.7751 10.6825C11.6792 10.6318 11.595 10.5615 11.5281 10.4761L10.9866 9.80445C10.6714 9.41387 10.8172 9.16828 11.3113 9.25557L12.1398 9.40352C12.2438 9.42101 12.3431 9.45925 12.432 9.51596C12.5186 9.39242 12.6088 9.27111 12.7027 9.15424C12.6295 9.08298 12.5709 8.99802 12.5304 8.9042L12.1805 8.1149C11.9778 7.65701 12.1805 7.45728 12.6369 7.67106L13.3996 8.02688C13.4889 8.0683 13.5696 8.12599 13.6378 8.197C13.7547 8.09936 13.8782 8.00837 14.001 7.91812C13.9518 7.83409 13.9192 7.74145 13.9048 7.64516L13.7717 6.79225C13.694 6.29736 13.9433 6.15681 14.3279 6.47934L14.9723 7.02083C15.0451 7.08229 15.1065 7.15617 15.1535 7.23905C15.2926 7.17395 15.4346 7.1133 15.5789 7.05856C15.556 6.96872 15.5495 6.87552 15.5596 6.78338L15.6513 5.92528C15.7046 5.42669 15.9813 5.35569 16.269 5.76698L16.7513 6.45568C16.8037 6.53186 16.8427 6.61641 16.8667 6.7057C17.0199 6.67907 17.1715 6.65097 17.3276 6.63543C17.3305 6.54728 17.3483 6.46026 17.3801 6.378L17.6908 5.57316C17.8713 5.10565 18.1568 5.10861 18.3284 5.58057L18.6162 6.37134C18.647 6.45524 18.663 6.54384 18.6635 6.63321C18.8196 6.648 18.972 6.67315 19.1251 6.6983C19.1514 6.61395 19.1908 6.5343 19.242 6.46233L19.7517 5.76624C20.0476 5.35865 20.3228 5.43632 20.3664 5.93786L20.4404 6.77523C20.4483 6.86515 20.4405 6.95575 20.4175 7.04303C20.5654 7.09777 20.706 7.1562 20.8473 7.22056C20.8941 7.14504 20.953 7.0778 21.0218 7.02157L21.6942 6.48082C22.0841 6.16421 22.3304 6.30995 22.2439 6.80631L22.0959 7.63407C22.0789 7.72537 22.0467 7.81316 22.0005 7.89372C22.1262 7.98397 22.2513 8.07274 22.3704 8.1726C22.4356 8.11128 22.5106 8.06128 22.5923 8.02466L23.3808 7.6755C23.8402 7.4706 24.0407 7.6755 23.8247 8.13118L23.4696 8.89385C23.4294 8.98056 23.3737 9.05925 23.3054 9.12612C23.4016 9.24447 23.4918 9.36875 23.5798 9.49599C23.6635 9.448 23.7553 9.41589 23.8506 9.4013L24.7035 9.26888C25.1991 9.19047 25.3404 9.43976 25.0171 9.82516L24.4764 10.4695C24.4113 10.5474 24.3319 10.6121 24.2426 10.6603C24.3026 10.7979 24.3558 10.9392 24.4083 11.0805C24.507 11.0518 24.6104 11.0432 24.7124 11.0554L25.5705 11.1471C26.0705 11.1996 26.1415 11.477 25.7303 11.7655L25.0408 12.2485C24.9522 12.3118 24.8515 12.3562 24.7449 12.3787C24.7671 12.5267 24.79 12.6746 24.8026 12.8226C24.9113 12.818 25.0198 12.8367 25.1207 12.8773L25.9241 13.1895C26.3908 13.3626 26.3879 13.6481 25.9159 13.8205H25.9152Z" fill="#0D3D12"/>
</svg>
