<svg width="21" height="21" viewBox="0 0 21 21" fill="none" xmlns="http://www.w3.org/2000/svg">
<mask id="mask0_183_12311" style="mask-type:alpha" maskUnits="userSpaceOnUse" x="0" y="0" width="21" height="21">
<rect x="0.25" y="0.25" width="20.5" height="20.5" fill="#D9D9D9" stroke="white" stroke-width="0.5"/>
</mask>
<g mask="url(#mask0_183_12311)">
<path d="M4.375 2.875H10.25V4.125H4.375H4.125V4.375V16.625V16.875H4.375H10.25V18.125H4.375C3.96061 18.125 3.61193 17.9805 3.31548 17.6847C3.01953 17.3882 2.875 17.0395 2.875 16.625V4.375C2.875 3.96058 3.01951 3.61187 3.3154 3.3154C3.61187 3.01951 3.96058 2.875 4.375 2.875ZM15.0281 11.125H8.125V9.875H15.0281H15.6317L15.2049 9.44822L13.1458 7.38912L14.0048 6.48331L18.0214 10.5L14.0048 14.5167L13.1458 13.6109L15.2049 11.5518L15.6317 11.125H15.0281Z" fill="#4F4F4F" stroke="white" stroke-width="0.5"/>
</g>
</svg>
