<svg width="21" height="20" viewBox="0 0 21 20" fill="none" xmlns="http://www.w3.org/2000/svg">
<path fill-rule="evenodd" clip-rule="evenodd" d="M15.6431 13.6474L19.8645 17.8747C20.053 18.0844 20.0437 18.4055 19.8434 18.6039L19.1047 19.3437C19.0056 19.4437 18.8707 19.5 18.73 19.5C18.5893 19.5 18.4544 19.4437 18.3553 19.3437L14.1339 15.1164C14.0172 14.9994 13.9112 14.872 13.8173 14.7359L13.0258 13.6791C11.7162 14.7263 10.0898 15.2965 8.41388 15.296C4.96034 15.308 1.95934 12.9224 1.18757 9.5515C0.415791 6.18058 2.07921 2.72404 5.19304 1.22824C8.30686 -0.267556 12.0401 0.596597 14.1825 3.3091C16.3249 6.0216 16.3047 9.85852 14.1339 12.5483L15.1893 13.2775C15.3541 13.3831 15.5063 13.5072 15.6431 13.6474ZM3.13727 7.89798C3.13727 10.8163 5.49977 13.1821 8.41405 13.1821C9.81355 13.1821 11.1557 12.6254 12.1453 11.6344C13.1349 10.6435 13.6908 9.29942 13.6908 7.89798C13.6908 4.97963 11.3283 2.61384 8.41405 2.61384C5.49977 2.61384 3.13727 4.97963 3.13727 7.89798Z" fill="black"/>
<path d="M19.8645 17.8747L20.1248 17.6407L20.1187 17.6339L20.1122 17.6274L19.8645 17.8747ZM15.6431 13.6474L15.3925 13.8918L15.3954 13.8947L15.6431 13.6474ZM19.8434 18.6039L19.5971 18.3552L19.5957 18.3566L19.8434 18.6039ZM19.1047 19.3437L18.857 19.0964L18.856 19.0974L19.1047 19.3437ZM18.3553 19.3437L18.604 19.0974L18.603 19.0964L18.3553 19.3437ZM14.1339 15.1164L13.8862 15.3636L13.8863 15.3637L14.1339 15.1164ZM13.8173 14.7359L14.1056 14.537L14.0975 14.5261L13.8173 14.7359ZM13.0258 13.6791L13.3059 13.4693L13.0894 13.1801L12.8072 13.4057L13.0258 13.6791ZM8.41388 15.296L8.41398 14.946L8.41266 14.946L8.41388 15.296ZM1.18757 9.5515L0.846394 9.62961L1.18757 9.5515ZM5.19304 1.22824L5.04148 0.912755L5.19304 1.22824ZM14.1825 3.3091L13.9078 3.52603L14.1825 3.3091ZM14.1339 12.5483L13.8616 12.3285L13.6247 12.6219L13.935 12.8362L14.1339 12.5483ZM15.1893 13.2775L14.9902 13.5656L15.0004 13.5722L15.1893 13.2775ZM12.1453 11.6344L12.393 11.8818L12.1453 11.6344ZM20.1122 17.6274L15.8907 13.4001L15.3954 13.8947L19.6168 18.122L20.1122 17.6274ZM20.0897 18.8526C20.4227 18.5227 20.4381 17.9893 20.1248 17.6407L19.6042 18.1087C19.6679 18.1796 19.6648 18.2882 19.5971 18.3552L20.0897 18.8526ZM19.3523 19.591L20.0911 18.8512L19.5957 18.3566L18.857 19.0964L19.3523 19.591ZM18.73 19.85C18.9642 19.85 19.1886 19.7563 19.3533 19.59L18.856 19.0974C18.8226 19.1311 18.7772 19.15 18.73 19.15V19.85ZM18.1067 19.59C18.2714 19.7563 18.4958 19.85 18.73 19.85V19.15C18.6828 19.15 18.6374 19.1311 18.604 19.0974L18.1067 19.59ZM13.8863 15.3637L18.1077 19.591L18.603 19.0964L14.3816 14.8691L13.8863 15.3637ZM13.5292 14.9347C13.635 15.0881 13.7545 15.2317 13.8862 15.3636L14.3817 14.8692C14.2798 14.7671 14.1873 14.656 14.1054 14.5372L13.5292 14.9347ZM12.7457 13.8889L13.5372 14.9457L14.0975 14.5261L13.3059 13.4693L12.7457 13.8889ZM8.41378 15.646C10.1693 15.6466 11.8727 15.0493 13.2444 13.9524L12.8072 13.4057C11.5596 14.4034 10.0104 14.9465 8.41398 14.946L8.41378 15.646ZM0.846394 9.62961C1.65462 13.1597 4.79758 15.6586 8.4151 15.646L8.41266 14.946C5.1231 14.9575 2.26406 12.6851 1.52874 9.47339L0.846394 9.62961ZM5.04148 0.912755C1.78005 2.47946 0.0381834 6.09956 0.846394 9.62961L1.52874 9.47339C0.793398 6.26161 2.37838 2.96862 5.34459 1.54373L5.04148 0.912755ZM14.4571 3.09216C12.2133 0.251247 8.30307 -0.654022 5.04148 0.912755L5.34459 1.54373C8.31065 0.118911 11.8668 0.941946 13.9078 3.52603L14.4571 3.09216ZM14.4063 12.7681C16.6797 9.95114 16.7008 5.93292 14.4571 3.09216L13.9078 3.52603C15.9489 6.11027 15.9297 9.7659 13.8616 12.3285L14.4063 12.7681ZM15.3882 12.9896L14.3329 12.2603L13.935 12.8362L14.9903 13.5655L15.3882 12.9896ZM15.8936 13.403C15.7383 13.2438 15.5654 13.1028 15.3781 12.9828L15.0004 13.5722C15.1428 13.6634 15.2744 13.7707 15.3926 13.8918L15.8936 13.403ZM8.41405 12.8321C5.69352 12.8321 3.48727 10.6235 3.48727 7.89798H2.78727C2.78727 11.0092 5.30601 13.5321 8.41405 13.5321V12.8321ZM11.8976 11.3871C10.9737 12.3124 9.72056 12.8321 8.41405 12.8321V13.5321C9.90653 13.5321 11.3378 12.9384 12.393 11.8818L11.8976 11.3871ZM13.3408 7.89798C13.3408 9.20676 12.8217 10.4618 11.8976 11.3871L12.393 11.8818C13.4481 10.8251 14.0408 9.39209 14.0408 7.89798H13.3408ZM8.41405 2.96384C11.1346 2.96384 13.3408 5.17247 13.3408 7.89798H14.0408C14.0408 4.78679 11.5221 2.26384 8.41405 2.26384V2.96384ZM3.48727 7.89798C3.48727 5.17247 5.69352 2.96384 8.41405 2.96384V2.26384C5.30601 2.26384 2.78727 4.78679 2.78727 7.89798H3.48727Z" fill="white"/>
</svg>
