<svg width="31" height="31" viewBox="0 0 31 31" fill="none" xmlns="http://www.w3.org/2000/svg">
<rect width="31" height="31" rx="15.5" fill="#826FC9"/>
<path d="M15.5 0C6.94006 0 0 6.93957 0 15.5003C0 24.0611 6.94324 31 15.5 31C24.0568 31 31 24.0604 31 15.5003C31 6.94021 24.0606 0 15.5 0ZM3.13274 8.32124H24.095V9.94179H20.038V17.9815H3.13274V8.32124ZM3.50538 20.139H3.17096V18.3388H5.00105C4.61681 18.4759 4.27601 18.7129 4.01371 19.0254C3.7514 19.3378 3.57704 19.7145 3.50857 20.1167C3.50729 20.1244 3.50665 20.1339 3.50538 20.139ZM5.78009 22.6788C5.20451 22.6788 4.6525 22.4501 4.2455 22.0431C3.8385 21.6361 3.60985 21.0841 3.60985 20.5085C3.60997 20.3846 3.62084 20.261 3.64233 20.139C3.72926 19.636 3.99074 19.1798 4.38081 18.8505C4.77088 18.5212 5.26454 18.3401 5.77499 18.3388H5.78519C6.29571 18.34 6.78947 18.5212 7.17964 18.8504C7.56981 19.1797 7.83142 19.636 7.91848 20.139C7.93944 20.2611 7.9501 20.3846 7.95033 20.5085C7.95075 20.7937 7.89492 21.0763 7.78604 21.34C7.67717 21.6037 7.51738 21.8433 7.31581 22.0452C7.11424 22.247 6.87486 22.4072 6.61134 22.5164C6.34783 22.6257 6.06536 22.6819 5.78009 22.6819V22.6788ZM22.9153 22.6788C22.486 22.6788 22.0664 22.5515 21.7095 22.313C21.3526 22.0745 21.0745 21.7356 20.9102 21.339C20.746 20.9424 20.703 20.5061 20.7867 20.0851C20.8705 19.6641 21.0772 19.2774 21.3807 18.9738C21.6842 18.6703 22.0709 18.4636 22.4919 18.3799C22.9129 18.2961 23.3492 18.3391 23.7458 18.5034C24.1423 18.6677 24.4813 18.9458 24.7197 19.3027C24.9582 19.6596 25.0855 20.0792 25.0855 20.5085C25.0859 20.7935 25.0302 21.0759 24.9215 21.3394C24.8127 21.6029 24.6532 21.8424 24.4519 22.0443C24.2506 22.2461 24.0115 22.4063 23.7483 22.5157C23.4851 22.6251 23.2029 22.6816 22.9178 22.6819L22.9153 22.6788ZM27.4105 19.0128L27.8647 19.0395C27.8647 19.3848 27.8558 19.7402 27.8558 20.0849C27.0277 20.0849 26.1996 20.0849 25.3715 20.0753C25.0989 18.8758 23.9357 17.9127 22.6815 18.0942C21.5457 18.1579 20.7552 19.1306 20.4367 20.139H8.0548C8.0548 20.132 8.0548 20.1244 8.0548 20.1167C7.98644 19.7146 7.81221 19.3379 7.55001 19.0254C7.28781 18.713 6.94711 18.476 6.56295 18.3388H20.4176C20.3966 16.2246 20.4176 14.1078 20.4176 11.9936L20.4112 11.9879V10.3953L20.4182 10.4011H20.4303C21.7171 10.3921 23.0032 10.3832 24.2988 10.4011C24.2688 10.8776 24.3163 11.3558 24.4396 11.8171C24.6173 12.5446 24.911 13.253 25.0893 13.983C25.2607 14.4129 25.2467 15.02 25.697 15.2621C25.7238 15.2768 25.7514 15.2898 25.7798 15.3009C25.9994 15.4092 26.2206 15.5154 26.4436 15.6194C26.7621 15.7679 27.0806 15.9131 27.3991 16.0577C27.4309 17.0406 27.4035 18.0216 27.4131 19.0128H27.4105Z" fill="white"/>
</svg>
