<svg width="31" height="31" viewBox="0 0 31 31" fill="none" xmlns="http://www.w3.org/2000/svg">
<rect width="31" height="31" rx="15.5" fill="#826FC9"/>
<path d="M18.6172 13.5393L17.5859 15.2216V15.2459H19.316V13.5393C19.316 13.0769 19.3402 12.603 19.3753 12.1055H19.3281C19.0791 12.603 18.8778 13.0533 18.6172 13.5393Z" fill="white"/>
<path d="M15.4994 0C6.93941 0 0 6.93942 0 15.5C0 24.0606 6.93941 31 15.4994 31C24.0593 31 30.9994 24.0606 30.9994 15.5C30.9994 6.93942 24.0599 0 15.4994 0ZM5.0329 15.5C5.0329 10.1448 9.07527 5.72531 14.2693 5.11061V3.18625L19.1946 6.26421L14.2693 9.34217V7.59999C10.4391 8.19558 7.49615 11.5067 7.49615 15.4987C7.49828 17.0801 7.96821 18.6255 8.84678 19.9404C9.72536 21.2552 10.9733 22.2808 12.4335 22.8879L10.0193 24.3963C7.03177 22.5554 5.0329 19.2608 5.0329 15.5ZM21.9476 15.2452V16.5963H21.0227V18.4327H19.3162V16.5963H15.9026V15.4229L18.8175 10.7302H21.0215V15.2452H21.9476ZM11.8029 12.0456C11.1398 12.0456 10.5588 12.3774 10.1562 12.6826L9.64665 11.3907C10.227 10.9525 11.1277 10.597 12.1704 10.597C13.9126 10.597 14.8726 11.6162 14.8726 13.0176C14.8726 14.3095 13.9362 15.3407 12.8227 16.3357L12.1112 16.9288V16.9523H15.0146V18.4334H9.5511V17.3416L10.5467 16.4408C12.2297 14.9356 13.0476 14.0706 13.0711 13.1699C13.0711 12.5437 12.6921 12.0462 11.8029 12.0462V12.0456ZM16.7294 25.8875V27.8131L11.8048 24.7351L16.7294 21.6566V23.3981C20.5603 22.8038 23.5038 19.4927 23.5038 15.4994C23.5018 13.9179 23.0319 12.3724 22.1531 11.0575C21.2744 9.74256 20.0263 8.71709 18.5659 8.11022L20.9807 6.60245C23.9663 8.44974 25.9665 11.7392 25.9665 15.5013C25.9671 20.8552 21.9241 25.2747 16.7307 25.8881L16.7294 25.8875Z" fill="white"/>
</svg>
