<svg width="31" height="31" viewBox="0 0 31 31" fill="none" xmlns="http://www.w3.org/2000/svg">
<rect width="31" height="31" rx="15.5" fill="#826FC9"/>
<path d="M13.9438 13.4934L14.3521 13.5946V17.544L13.9438 17.6453C11.0423 18.3715 10.2015 21.473 10.0581 24.2764H11.3181L13.2507 22.0151L15.7013 19.1486L18.1518 22.0151L20.0819 24.2764H21.1648C21.0234 21.4736 20.18 18.3715 17.2791 17.6453L16.8714 17.544V13.5946L17.2791 13.4934C20.229 12.7538 21.0482 9.56692 21.1718 6.72656H10.0518C10.1747 9.56692 10.9964 12.7538 13.9438 13.4934ZM15.5 17.2618C15.4379 17.2618 15.3771 17.2434 15.3255 17.2089C15.2739 17.1744 15.2336 17.1253 15.2098 17.068C15.1861 17.0106 15.1799 16.9474 15.192 16.8865C15.2041 16.8256 15.234 16.7697 15.2779 16.7257C15.3218 16.6818 15.3778 16.6519 15.4387 16.6398C15.4996 16.6277 15.5628 16.6339 15.6202 16.6577C15.6775 16.6814 15.7266 16.7217 15.7611 16.7733C15.7956 16.825 15.814 16.8857 15.814 16.9478C15.814 17.0311 15.7809 17.111 15.722 17.1698C15.6631 17.2287 15.5833 17.2618 15.5 17.2618ZM15.5 15.2107C15.5579 15.2107 15.6146 15.2279 15.6628 15.2601C15.711 15.2923 15.7485 15.3381 15.7707 15.3916C15.7929 15.4451 15.7987 15.504 15.7874 15.5609C15.7761 15.6177 15.7482 15.6699 15.7072 15.7109C15.6662 15.7519 15.614 15.7798 15.5571 15.7911C15.5003 15.8024 15.4414 15.7966 15.3879 15.7744C15.3343 15.7522 15.2885 15.7147 15.2563 15.6665C15.2241 15.6183 15.207 15.5617 15.207 15.5037C15.2069 15.4652 15.2144 15.4271 15.2291 15.3915C15.2438 15.3559 15.2654 15.3236 15.2926 15.2963C15.3198 15.2691 15.3522 15.2475 15.3877 15.2328C15.4233 15.2181 15.4615 15.2106 15.5 15.2107ZM15.207 14.3737C15.207 14.3157 15.2241 14.2591 15.2563 14.2109C15.2885 14.1627 15.3343 14.1252 15.3879 14.103C15.4414 14.0808 15.5003 14.075 15.5571 14.0863C15.614 14.0976 15.6662 14.1255 15.7072 14.1665C15.7482 14.2075 15.7761 14.2597 15.7874 14.3165C15.7987 14.3734 15.7929 14.4323 15.7707 14.4858C15.7485 14.5394 15.711 14.5851 15.6628 14.6173C15.6146 14.6495 15.5579 14.6667 15.5 14.6667C15.4615 14.6668 15.4233 14.6593 15.3877 14.6446C15.3522 14.6299 15.3198 14.6083 15.2926 14.5811C15.2654 14.5538 15.2438 14.5215 15.2291 14.4859C15.2144 14.4503 15.2069 14.4122 15.207 14.3737ZM12.4743 11.0671H19.3385C19.3385 11.0671 18.2633 13.2851 15.5 13.2851C12.7367 13.2851 12.3067 11.0671 12.3067 11.0671H12.4743Z" fill="white"/>
<path d="M15.5 0C6.93943 0 0 6.93941 0 15.5C0 24.0606 6.93943 31 15.5 31C24.0606 31 31 24.0606 31 15.5C31 6.93941 24.0599 0 15.5 0ZM23.3956 6.72602H22.2528C22.0821 10.8506 20.5743 13.5489 17.9531 14.4216V16.7147C20.545 17.5766 22.0477 20.2278 22.2477 24.2746H23.3943V26.434H7.60382V24.2746H8.97844C9.17591 20.2278 10.6792 17.5766 13.2737 16.7147V14.4216C10.6499 13.5489 9.14152 10.8506 8.97081 6.72602H7.60382V4.56661H23.3956V6.72602Z" fill="white"/>
</svg>
