<svg width="31" height="31" viewBox="0 0 31 31" fill="none" xmlns="http://www.w3.org/2000/svg">
<rect width="31" height="31" rx="15.5" fill="#826FC9"/>
<path d="M15.5 0C6.93943 0 0 6.93941 0 15.5C0 24.0606 6.93943 31 15.5 31C24.0606 31 31 24.0606 31 15.5C31 6.93941 24.0606 0 15.5 0ZM22.3159 11.901L21.6349 12.1481C21.5425 12.184 21.4432 12.1986 21.3444 12.1908C21.3311 12.3182 21.3094 12.4456 21.2877 12.5673C21.3863 12.5863 21.4791 12.6277 21.5591 12.6883L22.1592 13.1259C22.5095 13.3807 22.4433 13.6183 22.012 13.6559L21.2896 13.7196C21.1842 13.7302 21.0777 13.7149 20.9794 13.675C20.9336 13.7948 20.8832 13.912 20.8291 14.0279C20.9266 14.07 21.0122 14.1357 21.0782 14.219L21.5438 14.7974C21.8152 15.1331 21.6903 15.3452 21.2635 15.2707L20.5507 15.1433C20.4399 15.1255 20.3357 15.0786 20.2488 15.0076C20.1724 15.1114 20.0972 15.2159 20.0144 15.3146C20.1036 15.3814 20.1736 15.4706 20.217 15.5733L20.5163 16.2523C20.6915 16.6466 20.5163 16.8192 20.1233 16.6345L19.4679 16.3281C19.3615 16.2812 19.2704 16.2055 19.2048 16.1096C19.1653 16.1415 19.1251 16.1733 19.085 16.2026L21.1807 25.5556C21.2928 25.9728 21.0756 26.1455 20.6941 25.9416L19.3334 25.2129C18.9512 25.0097 18.3837 25.0791 18.0626 25.3683L16.9855 26.341C16.667 26.6309 16.3905 26.5162 16.374 26.0862L16.0459 17.7416C16.0446 17.7458 16.0436 17.75 16.0427 17.7543L15.7752 18.4474C15.6191 18.85 15.3732 18.8474 15.2255 18.441L15.0675 18.0053L14.749 26.0856C14.7324 26.5175 14.4585 26.6321 14.1381 26.3404L13.061 25.3683C12.7425 25.0785 12.1692 25.0091 11.7901 25.2129L10.4302 25.941C10.0938 26.1219 9.88489 26.0047 9.92056 25.6894V25.6862C9.92558 25.6418 9.9341 25.598 9.94604 25.555L9.94986 25.5397L11.8239 16.1166C11.757 16.2163 11.6621 16.2941 11.5513 16.3402L10.8716 16.6415C10.4767 16.816 10.3059 16.6415 10.4894 16.2491L10.7971 15.5924C10.8446 15.4835 10.9224 15.3906 11.0213 15.3248C10.9385 15.2254 10.8608 15.121 10.7843 15.0159C10.6935 15.0918 10.5831 15.1406 10.4658 15.1567L9.73138 15.2713C9.30459 15.335 9.18547 15.1229 9.46193 14.7929L9.92821 14.2375C10.0008 14.1484 10.0961 14.0806 10.204 14.0413C10.1492 13.9241 10.0976 13.8062 10.0505 13.6846C9.9475 13.7291 9.83448 13.7454 9.72309 13.7317L8.98418 13.6521C8.55485 13.6056 8.49496 13.3686 8.84722 13.1202L9.44154 12.7055C9.52997 12.641 9.63352 12.6005 9.7422 12.5877C9.7199 12.4603 9.69825 12.3329 9.6836 12.2055C9.57883 12.2167 9.47289 12.2019 9.37529 12.1621L8.68225 11.8946C8.27903 11.7385 8.2822 11.4927 8.68797 11.3442L9.36957 11.0971C9.46547 11.0603 9.56872 11.0468 9.67086 11.0576C9.68233 10.9302 9.69953 10.8028 9.718 10.6754C9.61878 10.6564 9.52527 10.6147 9.44473 10.5537L8.84468 10.1161C8.49561 9.86131 8.56185 9.62563 8.99246 9.58741L9.71481 9.52372C9.81138 9.51382 9.90894 9.5249 10.0008 9.5562C10.0441 9.43581 10.0881 9.31541 10.1397 9.19884C10.0571 9.15519 9.9846 9.09463 9.92694 9.02112L9.46065 8.44272C9.18929 8.10639 9.31477 7.89491 9.74029 7.97008L10.4537 8.09747C10.5433 8.11254 10.6288 8.14547 10.7053 8.1943C10.7799 8.08792 10.8576 7.98346 10.9385 7.88281C10.8754 7.82146 10.825 7.7483 10.7901 7.6675L10.4888 6.98783C10.3142 6.59353 10.4888 6.42155 10.8818 6.60564L11.5385 6.91203C11.6154 6.94771 11.685 6.99738 11.7436 7.05853C11.8443 6.97445 11.9507 6.8961 12.0564 6.81838C12.0141 6.74602 11.986 6.66625 11.9736 6.58334L11.8589 5.84888C11.792 5.42273 12.0067 5.3017 12.338 5.57943L12.8928 6.04572C12.9555 6.09864 13.0083 6.16226 13.0489 6.23363C13.1686 6.17757 13.2909 6.12534 13.4151 6.0782C13.3955 6.00084 13.3899 5.92058 13.3986 5.84124L13.4775 5.10232C13.5234 4.67299 13.7616 4.61184 14.0094 4.96601L14.4248 5.55906C14.4699 5.62466 14.5035 5.69746 14.5241 5.77435C14.656 5.75142 14.7866 5.72722 14.921 5.71384C14.9235 5.63794 14.9388 5.56301 14.9662 5.49217L15.2337 4.79911C15.3892 4.39653 15.635 4.39908 15.7828 4.80549L16.0306 5.48643C16.0571 5.55868 16.0709 5.63497 16.0714 5.71193C16.2058 5.72467 16.337 5.74632 16.4689 5.76798C16.4915 5.69534 16.5254 5.62676 16.5695 5.56478L17.0084 4.96537C17.2632 4.61439 17.5002 4.68128 17.5378 5.11316L17.6015 5.83423C17.6082 5.91166 17.6015 5.98968 17.5817 6.06483C17.7091 6.11197 17.8301 6.16228 17.9518 6.2177C17.9921 6.15267 18.0429 6.09477 18.1021 6.04635L18.6812 5.58071C19.0169 5.30807 19.229 5.43357 19.1544 5.86099L19.027 6.57379C19.0124 6.65241 18.9846 6.728 18.9449 6.79737C19.0532 6.87509 19.1608 6.95153 19.2634 7.03752C19.3195 6.98471 19.3841 6.94165 19.4545 6.91012L20.1335 6.60946C20.5291 6.43301 20.7017 6.60946 20.5157 7.00185L20.2099 7.65859C20.1753 7.73326 20.1274 7.80102 20.0685 7.8586C20.1513 7.96052 20.2291 8.06754 20.3049 8.1771C20.3769 8.13578 20.4559 8.10813 20.538 8.09556L21.2724 7.98154C21.6992 7.91402 21.8209 8.12868 21.5425 8.46056L21.0769 9.01539C21.0208 9.08244 20.9525 9.13821 20.8756 9.17973C20.9272 9.29821 20.9731 9.41987 21.0183 9.54154C21.1032 9.51681 21.1923 9.50946 21.2801 9.51989L22.019 9.59888C22.4496 9.6441 22.5108 9.88297 22.1566 10.1314L21.5629 10.5474C21.4866 10.6019 21.3999 10.64 21.3081 10.6595C21.3272 10.7869 21.347 10.9143 21.3578 11.0417C21.4514 11.0377 21.5448 11.0538 21.6317 11.0888L22.3235 11.3576C22.7254 11.5067 22.7229 11.7526 22.3165 11.901H22.3159Z" fill="white"/>
<path d="M16.1486 10.4692C15.9613 10.1446 15.7757 9.81839 15.5919 9.49051C15.5627 9.43844 15.5292 9.38871 15.4919 9.3418C15.295 9.68428 15.1014 10.0299 14.9071 10.3748C14.8787 10.4346 14.8409 10.4898 14.795 10.5383C14.3408 10.6389 13.8783 10.7025 13.4248 10.808C13.556 10.9629 13.7127 11.0925 13.844 11.2474C14.0255 11.4381 14.216 11.6176 14.3848 11.8169C14.3319 12.268 14.2574 12.7136 14.2191 13.1653C14.5631 13.0258 14.8912 12.8623 15.2294 12.7136C15.3231 12.6772 15.4078 12.6136 15.511 12.605C15.6203 12.6441 15.7267 12.6905 15.8295 12.7438C16.148 12.8833 16.4665 13.0345 16.785 13.1758C16.7442 12.7216 16.6531 12.2699 16.6187 11.8126C16.7123 11.6892 16.8314 11.5824 16.9372 11.4677C17.1595 11.2554 17.3595 11.0221 17.578 10.8099C17.1283 10.7068 16.6716 10.6408 16.2212 10.5464C16.1804 10.5414 16.1645 10.4964 16.1486 10.4692Z" fill="white"/>
<path d="M15.5009 6.83984C14.5985 6.83972 13.7162 7.09887 12.9658 7.58449C12.2154 8.07012 11.6305 8.76041 11.285 9.56808C10.9396 10.3758 10.8491 11.2645 11.0251 12.122C11.2011 12.9795 11.6356 13.7672 12.2737 14.3854C12.9118 15.0036 13.7248 15.4247 14.6099 15.5953C15.495 15.7659 16.4125 15.6784 17.2462 15.3439C18.08 15.0093 18.7927 14.4428 19.2941 13.7159C19.7955 12.9889 20.0631 12.1343 20.0631 11.2601C20.0632 10.6796 19.9452 10.1048 19.716 9.56856C19.4868 9.03228 19.1507 8.545 18.7271 8.13454C18.3034 7.72408 17.8005 7.39848 17.2469 7.17634C16.6934 6.95419 16.1001 6.83984 15.5009 6.83984ZM15.5009 14.8404C14.7702 14.8404 14.0559 14.6305 13.4483 14.2372C12.8408 13.8439 12.3672 13.285 12.0876 12.631C11.808 11.977 11.7348 11.2573 11.8774 10.563C12.0199 9.86877 12.3718 9.23103 12.8885 8.73048C13.4052 8.22993 14.0635 7.88906 14.7802 7.75095C15.4968 7.61285 16.2397 7.68373 16.9148 7.95463C17.5899 8.22552 18.1669 8.68426 18.5729 9.27284C18.9788 9.86142 19.1955 10.5534 19.1955 11.2613C19.1955 12.2105 18.8063 13.1209 18.1134 13.7921C17.4205 14.4633 16.4808 14.8404 15.5009 14.8404Z" fill="white"/>
</svg>
