<svg width="109" height="132" viewBox="0 0 109 132" fill="none" xmlns="http://www.w3.org/2000/svg">
<circle cx="56.16" cy="79.6346" r="51.9803" fill="#826FC9"/>
<g clip-path="url(#clip0_915_18318)">
<path d="M62.5464 112.152C61.5582 112.01 60.7112 111.446 60.2877 110.599C59.7231 109.611 59.1584 107.775 60.0054 104.67C60.7112 101.846 59.4407 99.3054 56.7586 98.3173C51.959 96.4821 53.0883 91.9648 53.0883 91.9648L54.0765 92.2472C54.0765 92.3883 53.0883 95.7763 56.8998 97.188C60.1466 98.4585 61.6994 101.423 60.8524 104.811C60.1466 107.634 60.5701 109.187 61.1347 109.893C61.6994 110.74 62.4052 111.022 62.6875 111.022L62.5464 112.152Z" fill="#09B1BD"/>
<path d="M59.5813 89.5642C59.8636 90.1288 59.5813 90.6935 59.0166 90.9758L48.1469 95.6343C47.5822 95.9166 47.0176 95.6343 46.7352 95.0696L33.6069 64.4367C33.3245 63.8721 33.6069 63.3074 34.1715 63.0251L45.0413 58.3666C45.6059 58.0843 46.1706 58.3666 46.4529 58.9313L59.5813 89.5642Z" fill="#28D1D1"/>
<path d="M47.862 76.5781L49.2736 77.7075L51.1088 77.284L50.4029 78.9779L51.3911 80.5308L49.5559 80.3896L48.4266 81.9424L47.862 80.1073L46.168 79.4014L47.7208 78.4133L47.862 76.5781Z" fill="#FFE080"/>
<path d="M39.1102 62.0371L40.9454 63.5899L43.3452 63.0253L42.357 65.2839L43.7687 67.4014L41.2277 67.1191L39.6749 69.0954L39.1102 66.6956L36.8516 65.8486L38.969 64.4369L39.1102 62.0371Z" fill="#FFE080"/>
<path d="M40.9466 76.8601L41.9347 74.6014L39.5349 75.1661L37.5586 73.6133L39.8172 78.6952L42.2171 78.9776L40.9466 76.8601Z" fill="#FFE080"/>
<path d="M55.6297 80.6719L55.4886 83.0717L53.3711 84.3422L55.7709 85.1892L56.3356 87.7301L57.8884 85.7538H58.0296L55.9121 80.813L55.6297 80.6719Z" fill="#FFE080"/>
<path d="M54.6415 89.847L52.2417 90.5528L50.5477 89L50.4065 91.2586L48.2891 92.5291L50.5477 93.3761L50.83 94.5055L54.3592 93.0938L53.6534 92.1056L54.6415 89.847Z" fill="#FFE080"/>
<path d="M45.1796 85.3301L46.0266 86.0359L47.1559 85.7536L46.7324 86.7417L47.297 87.7299L46.1677 87.5887L45.4619 88.5769L45.1796 87.4476L44.1914 87.0241L45.1796 86.4594V85.3301Z" fill="#FFE080"/>
<path d="M47.2984 66.9785L48.5689 68.1078L50.1217 67.6843L49.4159 69.096L50.404 70.5077L48.71 70.3665L47.7219 71.637L47.4395 70.0842L45.8867 69.5195L47.2984 68.6725V66.9785Z" fill="#FFE080"/>
<path d="M2.12596 21.8054L5.65509 23.2171L8.61957 21.0996L8.4784 24.7699L11.4429 27.0286L7.77258 28.0167L6.64325 31.5459L4.52577 28.4402L0.855469 28.299L3.25528 25.4757L2.12596 21.8054Z" fill="#EE4783"/>
<path d="M57.4622 19.828L56.4741 22.5101L58.0269 24.91L55.2036 24.7688L53.5096 27.0274L52.6626 24.3453L49.9805 23.3571L52.3803 21.8043L52.5214 18.8398L54.7801 20.675L57.4622 19.828Z" fill="#28D1D1"/>
<path d="M44.6171 7.97175L42.9231 8.53641L42.4996 10.3716L41.3703 8.9599H39.5352L40.5233 7.54825L39.9587 5.85426L41.6526 6.27776L43.0643 5.14844V6.98359L44.6171 7.97175Z" fill="#EE4783"/>
<path d="M4.10173 44.5338L3.39591 42.2751L0.996094 41.5693L2.97241 40.1576V37.7578L4.94873 39.1695L7.20737 38.4636L6.36038 40.7223L7.9132 42.5574H5.51339L4.10173 44.5338Z" fill="#FFE080"/>
<path d="M52.5202 38.7461L52.9437 40.7224L54.9201 41.4282L53.2261 42.5576L53.0849 44.5339L51.5321 43.2634L49.5558 43.8281L50.4028 41.8517L49.2734 40.2989H51.2498L52.5202 38.7461Z" fill="#F56E9F"/>
<path d="M32.055 33.0996L32.4785 34.3701L33.749 34.9348L32.6196 35.6406L32.4785 37.0522L31.4903 36.0641L30.0787 36.4876L30.6433 35.2171L29.9375 34.0878L31.208 34.2289L32.055 33.0996Z" fill="#F56E9F"/>
<path d="M23.8666 4.16016L23.7254 6.4188L25.5606 7.83046L23.3019 8.39512L22.4549 10.6538L21.1844 8.67745L18.9258 8.53629L20.3374 6.70113L19.7728 4.44249L21.8903 5.43065L23.8666 4.16016Z" fill="#802555"/>
<path d="M39.9579 58.226C40.2403 58.3672 38.1228 50.8854 37.6993 42.9802C37.2758 36.3454 37.4169 28.7225 37.2758 23.6405C37.1346 12.7708 37.8404 0.207031 35.0171 0.207031C32.1938 0.207031 33.6055 14.6059 34.3113 22.9347C34.876 31.2634 39.1109 58.0849 39.9579 58.226Z" fill="#FFE080"/>
<path d="M42.6396 57.52C42.7807 57.6612 42.4984 53.0028 43.2042 48.3443C43.7689 44.3917 44.7571 39.8744 45.3217 36.9099C46.451 30.5574 48.4274 23.2168 46.7334 22.9345C45.0394 22.6522 44.1924 31.2633 43.6277 36.2041C42.9219 41.0037 42.2161 57.2377 42.6396 57.52Z" fill="#EE4783"/>
<path d="M35.866 60.0604C35.7248 60.2016 33.0427 56.8136 29.5135 53.9903C26.5491 51.5905 22.8788 49.1907 20.6201 47.3555C15.6793 43.6852 9.46804 39.8737 10.4562 38.6032C11.4444 37.3328 17.6556 42.697 21.3259 45.8027C24.9962 48.9083 36.1483 59.6369 35.866 60.0604Z" fill="#802555"/>
<path d="M37.4168 58.6486C37.4168 58.6486 15.395 22.3691 12.1482 17.993C9.04255 13.6168 12.5717 12.3464 14.1245 14.7462C15.6773 17.2872 32.1937 46.6496 37.4168 58.6486Z" fill="#28D1D1"/>
<path d="M46.4525 16.723C46.5936 17.1465 46.4525 17.7112 45.8878 17.9935C45.4643 18.1347 44.8997 17.9935 44.6173 17.4288C44.4762 17.0053 44.6173 16.4407 45.182 16.1583C45.6055 16.0172 46.1701 16.1583 46.4525 16.723Z" fill="#802555"/>
<path d="M26.5462 43.5453C26.6874 43.9688 26.5462 44.5334 25.9816 44.8158C25.5581 44.9569 24.8522 44.8158 24.7111 44.2511C24.5699 43.8276 24.7111 43.2629 25.2757 42.9806C25.6992 42.8394 26.2639 42.9806 26.5462 43.5453Z" fill="#5D153B"/>
<path d="M21.1849 55.2617C21.4672 55.9676 21.1849 56.8145 20.479 57.238C19.7732 57.5204 18.9262 57.238 18.5027 56.5322C18.2204 55.8264 18.5027 54.9794 19.2085 54.5559C19.9144 54.1324 20.7614 54.4147 21.1849 55.2617Z" fill="#28D1D1"/>
<path d="M47.8644 46.0858C47.7232 45.8034 47.2997 45.6623 47.0174 45.8034C46.7351 45.9446 46.5939 46.3681 46.7351 46.6504C46.8762 46.9328 47.2997 47.0739 47.5821 46.9327C47.7232 46.7916 48.0056 46.3681 47.8644 46.0858Z" fill="#09B1BD"/>
<path d="M29.6535 15.8768C29.5123 15.5944 29.0888 15.4533 28.8065 15.5944C28.5241 15.7356 28.383 16.1591 28.5241 16.4414C28.6653 16.7238 29.0888 16.8649 29.3711 16.7238C29.6535 16.5826 29.7946 16.1591 29.6535 15.8768Z" fill="#09B1BD"/>
<path d="M27.5353 22.3699C27.8177 23.0757 27.5353 23.7816 26.8295 24.0639C26.1237 24.3462 25.4179 24.0639 25.1355 23.3581C24.8532 22.6522 25.1355 21.9464 25.8414 21.6641C26.5472 21.3818 27.253 21.8053 27.5353 22.3699Z" fill="#EE4783"/>
<path d="M12.5711 46.51C12.7123 46.9335 12.5711 47.4981 12.1476 47.7805C11.7241 47.9216 11.1595 47.7805 10.8772 47.357C10.736 46.9335 10.8772 46.3688 11.3007 46.0865C11.7241 45.8041 12.2888 45.9453 12.5711 46.51Z" fill="#EE4783"/>
<path d="M17.6531 33.2398C17.9354 33.9456 17.6531 34.7926 16.9472 35.075C16.2414 35.3573 15.3944 35.075 15.1121 34.3691C14.8298 33.6633 15.1121 32.8163 15.8179 32.534C16.5238 32.2516 17.3707 32.534 17.6531 33.2398Z" fill="#FFCD4D"/>
<path d="M6.07895 16.299C6.22012 16.7225 6.07895 17.2872 5.65546 17.5695C5.23196 17.7107 4.6673 17.5695 4.38497 17.146C4.2438 16.7225 4.38497 16.1579 4.80846 15.8755C5.23196 15.5932 5.79662 15.7344 6.07895 16.299Z" fill="#802555"/>
<path d="M45.0401 58.3666C45.6047 58.0843 46.1694 58.3666 46.4517 58.9313L59.5801 89.5642C59.8624 90.1288 59.5801 90.6935 59.0154 90.9758L53.6512 93.3757L39.6758 60.7664L45.0401 58.3666Z" fill="#CEEFF2"/>
<path d="M64.8019 104.67C65.5077 104.528 66.0724 103.964 66.4958 103.258C66.9193 102.411 67.2017 100.999 66.3547 98.5995C65.6489 96.482 66.4959 94.5057 68.4722 93.5175C72.0013 91.8235 70.7308 88.4355 70.7308 88.4355L69.8838 88.7179C69.8838 88.859 70.872 91.4 68.0487 92.6705C65.5077 93.7998 64.5195 96.1996 65.5077 98.8818C66.2135 100.999 65.9312 102.27 65.6489 102.834C65.2254 103.54 64.8019 103.681 64.5195 103.823L64.8019 104.67Z" fill="#5D153B"/>
<path d="M65.65 87.0235C65.5088 87.447 65.7912 87.8705 66.2147 88.0117L74.8258 90.9762C75.2493 91.1173 75.6727 90.835 75.8139 90.4115L84.1427 65.8487C84.2838 65.4252 84.0015 65.0017 83.578 64.8606L74.9669 61.8961C74.5434 61.7549 74.1199 62.0373 73.8376 62.4608L65.65 87.0235Z" fill="#EE4783"/>
<path d="M73.9779 76.1543L72.9898 77.2836L71.5781 77.0013L72.284 78.2718L71.5781 79.5423L72.9898 79.4011L73.9779 80.3893L74.2603 78.9776L75.5308 78.2718L74.2603 77.7071L73.9779 76.1543Z" fill="#802555"/>
<path d="M80.0481 64.4375L78.6365 65.8492L76.8013 65.4257L77.6483 67.1196L76.6602 68.8136L78.6365 68.5313L79.907 69.943L80.1893 68.1078L81.8833 67.2608L80.1893 66.4138L80.0481 64.4375Z" fill="#802555"/>
<path d="M79.4803 76.0142L78.4922 74.3202L80.4685 74.6025L81.8802 73.332L80.4685 77.4258L78.4922 77.7082L79.4803 76.0142Z" fill="#802555"/>
<path d="M68.3302 79.8262L68.4713 81.8025L70.3065 82.6495L68.4713 83.4965L68.189 85.3316L66.9185 83.92H66.7773L68.0478 79.9673L68.3302 79.8262Z" fill="#802555"/>
<path d="M69.6016 86.8841L71.4367 87.3076L72.7072 86.0371L72.9895 87.8723L74.6835 88.7193L72.9895 89.4251L72.8484 90.4132L70.0251 89.4251L70.4486 88.5781L69.6016 86.8841Z" fill="#802555"/>
<path d="M76.6583 82.7891L76.0936 83.4949L75.1055 83.2126L75.529 84.0596L75.1055 84.9065L75.9525 84.7654L76.6583 85.33L76.7995 84.483L77.5053 84.0596L76.7995 83.6361L76.6583 82.7891Z" fill="#802555"/>
<path d="M73.8362 68.8145L72.9892 69.6614L71.8599 69.5203L72.4246 70.6496L71.7188 71.6378L72.9892 71.4966L73.8362 72.3436L73.9774 71.2143L75.1067 70.6496L73.9774 70.0849L73.8362 68.8145Z" fill="#802555"/>
<path d="M106.167 31.1236L103.626 32.3941L101.085 30.9824L101.509 33.8057L99.25 35.782L102.073 36.2055L103.344 38.8877L104.614 36.3467L107.579 36.0644L105.602 33.9469L106.167 31.1236Z" fill="#28D1D1"/>
<path d="M66.2154 34.0881L66.6389 35.0763L66.0742 35.9232L67.2035 35.7821L67.9094 36.6291L68.0505 35.4998L69.0387 35.0763L68.1917 34.6528L68.0505 33.5234L67.2035 34.2293L66.2154 34.0881Z" fill="#EE4783"/>
<path d="M87.3906 61.4734L88.0965 62.7439L87.3906 63.8732L88.8023 63.7321L89.6493 64.7202L89.9316 63.4497L91.2021 62.8851L89.9316 62.1792L89.7904 60.7676L88.8023 61.7557L87.3906 61.4734Z" fill="#28D1D1"/>
<path d="M73.2734 23.2176L74.6851 23.6411L75.1086 24.9116L75.9556 23.7823H77.3672L76.5202 22.653L76.9437 21.2413L75.5321 21.806L74.4028 20.959V22.3706L73.2734 23.2176Z" fill="#28D1D1"/>
<path d="M106.024 48.9092L106.447 47.0741L108.141 46.3682L106.588 45.3801L106.447 43.5449L105.035 44.6742L103.2 44.2507L104.047 45.9447L102.918 47.4976L104.894 47.3564L106.024 48.9092Z" fill="#802555"/>
<path d="M68.1901 47.2148L67.9077 48.7677L66.4961 49.4735L67.9077 50.1793L68.0489 51.7321L69.1782 50.6028L70.7311 50.8851L70.0252 49.6147L70.7311 48.203L69.3194 48.4853L68.1901 47.2148Z" fill="#F56E9F"/>
<path d="M83.5785 41.7109L83.4374 42.6991L82.4492 43.1226L83.4374 43.6873L83.5785 44.6754L84.2844 43.9696L85.4137 44.1108L84.849 43.1226L85.4137 42.2756L84.4255 42.4168L83.5785 41.7109Z" fill="#F56E9F"/>
<path d="M90.0741 22.5117L90.3564 24.3469L89.0859 25.6174L90.9211 25.8997L91.6269 27.4525L92.4739 25.8997L94.3091 25.6174L93.0386 24.3469L93.3209 22.6529L91.7681 23.3587L90.0741 22.5117Z" fill="#FFE080"/>
<path d="M79.0612 61.6153C78.9201 61.7565 79.9082 56.8157 79.7671 51.8749C79.6259 47.6399 79.3436 42.8403 79.0612 39.5935C78.6377 32.6764 77.5084 24.9123 79.3436 24.7711C81.1787 24.63 80.8964 33.8057 80.8964 39.0289C80.8964 44.252 79.6259 61.4742 79.0612 61.6153Z" fill="#802555"/>
<path d="M76.9451 61.1906C76.804 61.3318 76.804 57.6615 75.957 54.1323C75.2512 51.1678 74.263 47.7799 73.6983 45.3801C72.4278 40.4393 70.4515 34.9338 71.722 34.6515C72.9925 34.3692 74.1218 40.8628 74.9688 44.6742C75.8158 48.4857 77.2275 60.9083 76.9451 61.1906Z" fill="#28D1D1"/>
<path d="M82.3066 62.7437C82.3066 62.8848 84.2829 60.0615 86.965 57.6617C89.0825 55.6854 91.7646 53.5679 93.4586 52.0151C97.1289 48.9095 101.646 45.5215 100.799 44.6745C99.9522 43.6863 95.4349 48.3448 92.7528 50.8858C90.0707 53.4268 82.1654 62.4613 82.3066 62.7437Z" fill="#FFE080"/>
<path d="M81.0391 61.7551C81.0391 61.7551 95.8614 32.3927 98.1201 28.7224C100.238 25.0521 97.4143 24.3463 96.4261 26.3226C95.2968 28.4401 84.427 52.1559 81.0391 61.7551Z" fill="#EE4783"/>
<path d="M71.5805 29.8534C71.4394 30.2769 71.7217 30.7004 72.004 30.8415C72.4275 30.9827 72.851 30.7004 72.9922 30.418C73.1333 29.9946 72.851 29.5711 72.5687 29.4299C72.1452 29.2887 71.7217 29.4299 71.5805 29.8534Z" fill="#FFE080"/>
<path d="M88.518 49.3341C88.3769 49.7576 88.6592 50.1811 88.9415 50.3222C89.365 50.4634 89.7885 50.1811 89.9297 49.8988C90.0708 49.4753 89.7885 49.0518 89.5062 48.9106C89.0827 48.7694 88.6592 49.0518 88.518 49.3341Z" fill="#09B1BD"/>
<path d="M93.1766 56.8141C93.0354 57.3787 93.3178 58.0846 93.8824 58.2257C94.4471 58.3669 95.1529 58.0846 95.2941 57.5199C95.4352 56.9552 95.1529 56.2494 94.5883 56.1082C94.0236 55.9671 93.3178 56.2494 93.1766 56.8141Z" fill="#EE4783"/>
<path d="M72.2873 52.5799C72.4285 52.2976 72.7108 52.1564 72.9931 52.2976C73.2755 52.4387 73.4166 52.7211 73.2755 52.8622C73.1343 53.1446 72.852 53.2857 72.7108 53.1446C72.2873 53.1446 72.1461 52.8622 72.2873 52.5799Z" fill="#5D153B"/>
<path d="M84.5671 28.158C84.7083 27.8757 84.9906 27.7345 85.1318 27.8757C85.4141 28.0169 85.5553 28.2992 85.4141 28.5815C85.2729 28.8639 84.9906 29.005 84.8494 28.8638C84.5671 28.7227 84.4259 28.4404 84.5671 28.158Z" fill="#5D153B"/>
<path d="M86.5445 33.0992C86.4034 33.6639 86.6857 34.2286 87.1092 34.3697C87.6739 34.5109 88.2385 34.2286 88.3797 33.8051C88.5208 33.2404 88.2385 32.6758 87.815 32.5346C87.2504 32.2523 86.6857 32.5346 86.5445 33.0992Z" fill="#28D1D1"/>
<path d="M99.6704 50.7442C99.5292 51.1677 99.8115 51.5912 100.094 51.5912C100.517 51.7324 100.941 51.4501 100.941 51.1677C101.082 50.7442 100.8 50.3208 100.517 50.3208C100.094 50.1796 99.6704 50.4619 99.6704 50.7442Z" fill="#28D1D1"/>
<path d="M94.8719 40.8629C94.7307 41.4276 95.0131 41.9922 95.5777 42.2745C96.1424 42.4157 96.7071 42.1334 96.9894 41.5687C97.1306 41.0041 96.8482 40.4394 96.2836 40.1571C95.7189 40.0159 95.0131 40.2982 94.8719 40.8629Z" fill="#FFCD4D"/>
<path d="M102.776 27.0292C102.635 27.4527 102.917 27.8762 103.199 27.8762C103.623 28.0173 104.046 27.735 104.046 27.4527C104.187 27.0292 103.905 26.6057 103.623 26.6057C103.34 26.4645 102.917 26.6057 102.776 27.0292Z" fill="#FFE080"/>
<path d="M79.4833 63.4492L83.8594 64.8609C84.2829 65.002 84.5652 65.4255 84.4241 65.849L75.9541 90.553C75.813 90.9765 75.3895 91.2588 74.966 91.1177L70.5898 89.706L79.4833 63.4492Z" fill="#E6D3DD"/>
</g>
<defs>
<clipPath id="clip0_915_18318">
<rect width="107.286" height="111.944" fill="white" transform="translate(0.855469 0.207031)"/>
</clipPath>
</defs>
</svg>
